<?xml version="1.0" encoding="utf-8"?>
<!-- Generator: Adobe Illustrator 25.2.3, SVG Export Plug-In . SVG Version: 6.00 Build 0)  -->
<svg version="1.1" id="o-0" xmlns="http://www.w3.org/2000/svg" xmlns:xlink="http://www.w3.org/1999/xlink" x="0px" y="0px"
	 viewBox="0 0 280 280" style="enable-background:new 0 0 280 280;" xml:space="preserve">
<style type="text/css">
	.st0{fill:#C75260;}
</style>
<g transform="matrix(1,0,0,1,74.271525607878,80.1520214952358)">
	<g>
		<path class="st0" d="M94.7,106.8c1-0.2,1.5-0.4,2.3-0.6c1.1-0.6,2.1-1.3,3.2-1.7c1.3-0.6,2.7,0.4,2.7,1.7c0,0.6-0.6,1.3-1,1.7
			c-0.2,0.2-1-0.2-1.3-0.4s-0.8-0.4-1.1-0.4c-1.5,0.8-3.4,1.3-4.6,2.5c-1.1,1.1-1.7,3-2.7,4.8c-1,1.7-1.9,3.2-3,4.8
			c-0.4,0.4-1.1,0.4-1.9,0.6c0-0.6-0.4-1.3,0-1.9c0.6-1.5,1.3-3,1.9-4.4c-0.2,0-0.2-0.2-0.4-0.2c-1.1,1-2.3,2.1-3.6,2.9
			c-2.1,1.3-4.2,2.5-6.3,3.4c-0.4,0.2-1.1-0.2-1.5-0.2c0.2-0.6,0.4-1.1,0.8-1.5c1.9-1.5,3.8-3,5.5-4.6c0-0.2-0.2-0.4-0.2-0.4
			c-1.5,0.6-2.9,1.3-4.4,1.7c-1.7,0.6-3.6,1-5.5,1.3c-0.4,0-1-0.4-1.1-0.8c0-0.2,0.4-0.8,0.6-1c2.1-2.3,5.1-2.9,7.8-4
			c2.9-1.3,5.7-2.7,8.4-4.2c0.8-0.4,1.1-1.1,1.5-1.9c2.1-4.2,4.4-8.2,6.5-12.6c-3.8-1.3-6.8-4.2-11-2.9c-2.7,1-5.5,1.7-8.2,2.5
			c-1.9,0.6-2.9,2.1-3.8,3.6c-2.1,3.2-4.4,6.5-6.5,9.7c-0.4,0.4-0.6,1-0.8,1.3c1.9,0.2,3.8,0.2,5.9,0.4c0.4,0,1,0.2,1.1,0.6
			c0.4,0.6,0.8,1.3,1,2.1c-0.8-0.2-1.5-0.2-2.3-0.4c-0.8,0-1.5-0.2-2.1,0c-1.7,0.2-3.2,1-4.9,1c-2.5,0.2-4.8,1-7,2.1
			c-2.9,1.5-6.1,2.7-9.1,3.8c-0.4,0.2-1.1-0.6-1.3-0.8c-0.2-0.6,0.2-1.5,0.6-1.7c2.3-1.3,4.8-2.3,7-3.6c0.6-0.4,1.1-0.6,1.5-1.1
			c-2.5,0.2-4.8,0.4-7.2,0.6c-2.3,0.2-4.8,1.5-7.4,0.2c2.9-2.5,6.1-2.9,9.3-3.2c-0.4-0.4-0.8-0.8-1.1-1.3c0.8-0.2,1.3-0.6,1.7-0.6
			c3,0.4,5.9,1,8.9,1.1c0.8,0,1.9-0.2,2.3-0.8c2.7-4,5.1-8,7.6-11.6c-3.6-2.1-7.2-4-10.6-5.9c-2.3-1.3-4.6-2.5-7.2-2.7
			c-4-0.4-7.8-1.3-11.6-3c-2.9-1.1-4-3.8-5.9-6.1c-1-1-1.7-2.1-2.5-3.2c-1.1-2.1-1.7-4.6-3-6.5c-1.5-1.9-1.1-4.2-1.7-6.3
			c-0.4-1.7-1.1-3.2-1.7-4.9c-1-3.4-1.7-6.7-2.9-10.1c-0.6-1.5-1.5-2.9-2.1-4.4c-0.6-1.1-1-2.5-1.5-3.6c-1.3-2.1-2.7-4-4-6.1
			c-0.2,0-0.2,0.2-0.4,0.2c-0.2,1-0.4,1.9-0.8,2.9c-1.1,2.9-3.4,4.2-6.3,3.6c-4.6-1.1-6.5-4.2-3.8-8.9c0.8-1.3,1.3-2.7,1.9-4
			c-0.2-0.2-0.2-0.4-0.4-0.6c-2.5-0.4-4.6-0.4-6.8-0.6c-0.2-1.5,0.8-2.7,1.7-3.6c0.8-0.8,1-1.3,0.4-2.3c-1.3-2.5,0.4-5.1,3.2-5.1
			c1.5,0,2.5-0.6,2.9-2.1c0.2-0.6,0.2-1,0.4-1.5c0.8-1.5,1.9-1.9,3.4-0.8c1,0.6,1.7,1.9,2.7,1.9c1,0,1.7-1.3,2.7-1.9
			c1.3-1,2.5-0.2,3.6,0.4c1,0.4,1.7,0.6,2.5-0.2c1.9-1.5,3.4-1.7,4.9-0.8c1.1,1,1.5,3.4,0.6,5.3c-0.6,1.3-1.5,2.5-2.3,3.8
			c1.7,0.8,3.8,1.5,5.7,2.5C36,19.9,39.6,21.8,43,24c4.2,2.9,8,6.3,12.2,9.1c4,2.7,8.2,4.4,13.3,2.7c4.9-1.7,10.3-2.9,15.2-4.4
			c0.6-0.2,1.1-0.8,1.7-1.3c0-0.2-0.2-0.4-0.2-0.6h1c1,1.5,2.3,1,3.4,0.8c1.9-0.4,4-0.8,5.9-1.5c1.5-0.6,3-1.5,3.8-2.7
			c4-5.5,7.8-11.2,12-16.7c1.9-2.7,4-5.3,7-6.8l4-2.3c0.4-0.2,1-0.4,1.1-0.2c1.1,1.3,2.9,1.1,4.2,1.7c0.8,0.4,1.1,1.7,1.5,2.7
			c0.2,0.6,0,1.3,0.4,1.5c2.9,2.5,1.9,5.5,1.1,8.4c-0.6,2.1-1.5,4.2-2.5,6.3c-0.2,0.4-0.2,0.8,0,1c1.9,5.5,1.1,10.8-0.6,16.2
			c-1.5,4.4-1.1,8.6,0,12.7c1,3.6,0.2,6.8-1.5,10.3c-1.7,3.4-4.6,5.9-6.8,8.9c-0.6,0.8-1.1,1.5-1.1,2.5c-0.2,4-2.5,6.8-4.9,9.5
			c-2.5,2.7-5.1,5.1-7.6,7.8c-0.2,0.2-0.4,0.6-0.8,0.6c-3,0.4-3.6,3-4.6,5.1c-1.7,3.4-3.4,7-4.9,10.5
			C94.9,105.8,94.9,106,94.7,106.8L94.7,106.8z M52.1,34.5c-1.3-1.3-2.7-2.9-4.2-3.8c-3-2.1-6.1-4-9.3-5.7c-3.2-1.9-6.5-4-9.9-5.5
			c-3.2-1.5-6.5-2.5-9.9-3.6c-0.4-0.2-0.8,0-1.1,0c0.2,1.1,0.4,2.3,0.2,3.2c-0.6,3-4.2,4.4-7,2.7c-0.6-0.4-1.3-0.4-2.3-0.6
			c0.6,2.5,0.6,4.4-0.4,6.1c-0.8,1.3-1.3,2.9-1.7,4.4c-0.4,1.3,0.2,2.5,1.3,3c2.1,1,5.1-0.8,5.3-3c0.2-2.1-0.2-4-1.1-5.9
			c-0.2-0.6-0.2-1.3,0-1.9c0.2-0.2,1.1-0.2,1.7-0.2c0.8,0,1.5,0.2,2.3,0.2c1.7,0,3.2-1.5,3.6-3c0.2-0.4,1.1-1,1.3-1
			c0.8,0.4,1,3,0.2,3.4c-1.3,1-3,1.7-4.8,2.9c1,1.5,1.5,3.2,2.9,4.6c2.5,2.9,3.8,6.3,5.3,9.5c1.9,4.8,3.6,9.7,5.5,14.5
			c0.2,0.6,0.6,1.3,0.6,1.7c-0.8,1.7,0,3.2,0.8,4.6c2.7,4.9,4.8,10.5,8.6,15c2.3,2.7,5.3,3,8.2,4c2.3,0.8,4.8,0.6,7.2,1.1
			c1.7,0.4,3.4,1.1,5.1,1.7c0.4-0.4,0.8-1.3,1-1.3c1.1,0.4,2.1,0.8,3,1.3v0.6c-0.8,0.4-1.3,0.6-2.1,1c0,0,0.2,0.6,0.4,0.6
			c2.3,0.8,4,1.9,5.3,4c0.2,0.2,1.1,0.6,1.3,0.4c1.5-1.3,2.5-0.4,3.4,0.8h0.6c-0.2-0.4-0.2-0.8-0.2-1c1.3-0.2,2.7-0.4,3.8-0.8
			c0.4,0,0.8-0.4,1.1-0.2c1.5,0.8,1.9-0.4,2.1-1.5c2.9,1.3,4.2,2.1,6.5-0.4c0.6,1,1.1,1,1.7,0c0.2-0.4,0.8-0.6,1.3-0.6H94l0.2,0.2
			c-0.4,0.4-0.8,0.6-1.1,1c4.2,3,11.8,1.1,14.6-3.2c-0.4-0.4-0.8-1-0.8-1c1-0.4,2.1-0.6,2.7-1.1c1.7-1.9,3-3.8,4.6-5.9
			c0.4-0.6,0.2-1.3,0.4-2.1c-0.8,0-1.5-0.2-2.3-0.2c0.4,1,0.6,1.5,0.8,2.1c-1.9,0.4-3.6,1.5-4.9-0.6c-0.2-0.4-0.4-1-0.4-1.1
			c1.5-1.1,0.4-1.9-0.4-2.9c0.6-0.4,1.1-0.8,1.5-1.1c0,0.2-0.2,0.4-0.2,0.6c0.4,0.2,0.8,0.8,1.1,0.6c1-0.4,1.7-0.8,2.7-1.1
			c0.6,2.1,1.3,2.7,3.6,1c0.2-1.5,0.2-2.7,0.4-3.8c-0.8-0.6-1.3-1.1-1.9-1.7c-0.2,0.4-0.4,0.8-0.6,1l-3.4,2.9
			c-0.4-0.4-1.1-1-1.9-1.5c0.2-0.4,0.4-0.8,0.6-0.8c1.7,0.2,2.5-1.5,3.6-2.3c0.4-0.2,0.8-1.9,0.4-2.1c-1-0.8-2.5-1-3.6-1.3
			c-1.1-0.4-1.5-0.6-1.7-1.3c0.6-0.4,1.1-1,1.7-1c0.8,0,1.5,0.2,2.5,0.4c-0.4-0.8-0.8-1.3-1-1.7c2.1,0,3,0.8,2.5,2.5
			c0.4,0,1,0.2,1.3,0.2c0,0.6-0.2,1-0.2,1.3c0.8,0.6,1.3,1,2.3,1.7c-1,0.4-1.7,0.6-2.3,0.8c0.6,2.1,2.5,1.9,3.6,1.9
			c0.8,0,1.5-1.7,2.5-2.7c-1.9-1-4-1-4.2-3.4c-0.8,0.2-1.3,0.4-1.9,0.6c0.4-1,1-1.9,1.5-3c2.3,1,4.6,1.7,7,2.7
			c1.9-3,2.3-6.1,1.3-9.5c-1-2.9-1.1-5.9-0.8-8.9c0.2-1.3,0.4-2.7,0.6-4.4c-1.1,1.5-2.1,2.9-3.2,4c-0.4,0.4-1.1,0.4-1.7,0.6
			c-0.2-0.6-0.4-1.1-0.4-1.7s0.2-1,0.6-1.3c1.9-3.2,4-6.3,5.9-9.3c0.6-1,0.8-1.9-0.2-3c-0.4,0.6-0.8,0.8-1,1.1
			c-1.9,3.8-4.2,7.2-7.4,10.1c-0.6,0.4-1.7,0.8-2.1,0.4c-0.8-0.8-0.8-1.7,0.2-2.5c0.8-0.6,1.3-1.3,2.1-2.1c3.4-4.6,6.7-9.1,9.1-14.5
			c1-2.3,1.7-4.6,2.5-6.8c0.2-1,0-1.9,0-2.9h-0.6c-0.6,1.3-1,2.7-1.7,3.8c-2.5,4.2-4.8,8.4-7.4,12.6c-1.9,3-4.2,5.9-6.5,8.9
			c-0.6,0.8-1.1,1.1-2.1,0.6c-1-0.8-0.8-1.3-0.2-2.3c0.2-0.4,0.6-0.6,0.8-1c1.7-2.1,3.4-4.4,4.9-6.5c3.2-4.4,5.9-9.1,8.2-14.1
			c0.8-1.7,1.1-3.6,1.7-5.3c-0.2-0.2-0.4-0.2-0.6-0.4c-0.6,0.4-1.3,0.6-1.7,1.1c-1.7,2.1-3.2,4.4-4.8,6.7c-3,4.4-5.9,8.7-8.9,13.1
			c-0.6,1-1.5,1.7-2.3,2.7c-0.2,0.2-1,0.4-1.1,0.2c-0.2-0.2-0.4-0.8-0.4-1.1s0.4-0.8,0.6-1l12.6-18.8c0.4-0.8,0.6-1.7,1-2.5
			c-0.8,0-1,0-1.1,0.2c-3.4,2.5-5.7,6.1-8,9.5c-3.4,4.9-6.7,10.1-10.3,15c-0.8,1.1-2.3,1.9-3.8,2.5c-1.3,0.6-3,0.6-4.4,0.6
			c-6.8,0.4-13.3,2.9-20,4.8c-3,0.8-5.7,2.7-9.3,1.9c-2.3-0.4-4.4-1-6.3-2.1C55.6,36.6,53.8,35.5,52.1,34.5L52.1,34.5z M4,13.6
			c0.2,1.5-0.4,2.9,1.5,2.7c2.5-0.2,4.8-1,6.7-3c0.6-0.6,0.8-1.7,2.1-1.1c0.8,0.4,1.9,0.2,2.9,0.4c1.3,0.4,2.5,1.1,4,1.3
			c3.6,0.4,4.4-0.8,5.5-3.2c0.2-0.4,0-1-0.2-1.3c-0.4,0-1,0-1.1,0.2c-2.5,1.7-3.2,1.7-5.7,0.2c-1-0.8-1.7-0.6-2.7,0
			c-1,0.6-1.9,1.5-2.9,1.7c-1,0.2-2.1-0.6-3.2-1.1C9.5,12.8,8,15.3,4,13.6z M13.7,20c1.9,0,2.7-0.6,2.7-2.1c0-1.3-1.3-2.9-2.7-2.9
			c-1.5,0-3,1.5-3,2.9C10.5,19.1,12.2,20,13.7,20z M94,101.4c-0.6,1.1-1.3,2.3-2.1,3.2c-0.6,1-1.1,2.3-1.9,2.7
			c-1.7,0.6-3,1.1-3.4,3.2c2.1,0.4,2.9-1.9,4.4-2.7C93.4,106.8,93.6,103.9,94,101.4L94,101.4z M99.9,91.6c-0.2-0.2-0.6-0.4-0.8-0.4
			c-0.8,1.9-1.7,3.6-2.5,5.5c0.2,0,0.2,0.2,0.4,0.2C97.8,95,98.9,93.3,99.9,91.6z"/>
		<path class="st0" d="M99.5,48.4c-2.5-0.2-5.1-1-7.6-0.8c-4.2,0.2-8.6,1-12.7,1.3c-0.6,0-1.5,0-1.7-0.2c-0.6-1.1,0.6-1.3,1.3-1.5
			l6.3-1.7c0.4-0.2,1,0.2,1.5,0.4c0.2-0.2,0.6-0.6,1.1-0.8c4.2-0.4,8.4-0.8,12.6,0.8c0.6,0.2,1.3,0.6,1.7,1.1c1,1.3,2.1,1.7,3.6,1.5
			c1.7-0.2,3,0.2,4.2,1.9c0.4,0.8,1.5,1.1,2.3,1.7c0,0.2-0.2,0.2-0.2,0.4c-0.6-0.2-1.1-0.6-1.9-0.8c0,2.3-1.1,3.8-2.7,5.3
			c-2.5,2.7-4.8,5.5-7,8.4c-2.1,2.7-5.1,3.8-8.2,5.3c-2.7,1.3-5.5,2.7-8.4,3.2c-5.1,1.1-10.3,1.9-15.4,2.9c-1,0.2-2.1-0.2-3.2-0.2
			c-0.8,0-1.3,0.4-2.1,0.4c-0.8,0-1.9,0.2-2.5-0.2C58,75,55.4,73.1,53.1,71c-2.7-2.3-3-5.7-3.4-9.1c-0.4-3.6,0-7,1.5-10.5
			c0.2-0.6,1-0.8,1.3-1.1c0.2,0.8,1,1.5,0.8,1.9c-0.6,2.3-1.7,4.6-1.3,7.2c0.4,3.2,1,6.7,3,9.3c1.9,2.5,4.8,4,7.8,4.6
			c6.1,1,12.2,0,18.1-1.9c2.9-1,5.9-1.9,8.7-2.9c0.6-0.2,1-0.6,1.3-1.3c-3.6,0.4-7.2,0.6-10.8,1c-2.3,0.2-4.4,0.4-6.7,0.6
			c-0.4,0-1-0.6-1.3-1c0.4-0.4,0.8-1.3,1.1-1.3c2.3-0.4,4.6-0.6,7-0.8c2.9-0.4,5.7-0.6,8.6-1c1.9-0.2,3.8-0.4,5.7,0.6
			c0.2,0.2,0.6,0.2,0.8,0.2c1,0,3.6-2.5,3.8-4c-1.1,0.2-2.3,0.2-3.4,0.4c-3.8,0.4-7.6,0.6-11.4,1c-2.5,0.2-5.1,0.6-7.6,0.6
			c-0.6,0-1.3-0.2-1.9-0.6c-0.2-0.2-0.2-1.1,0-1.3c0.6-0.4,1.1-0.4,1.9-0.6c1.7-0.2,3.6-0.2,5.3-0.4l10.8-1.1c1.9-0.2,4-0.6,5.9-0.8
			c0.2,0,0.6-0.2,0.8,0c1.5,0.8,2.9,0.4,4-0.8c0.4-0.4,0.6-0.8,0.8-1.1c-0.4-0.2-1-0.6-1.3-0.4c-1.9,0.2-3.8,0.6-5.7,0.6
			c-2.7,0.2-5.5,0.4-8.2,0.6c-4.6,0.2-9.3,0.6-13.9,0.8c-0.4,0-0.8,0.2-1.1,0c-0.2-0.2-0.6-0.6-0.6-0.8c0.2-0.4,0.6-1.1,1-1.1
			c2.3-0.4,4.6-0.6,7-0.8c5.7-0.4,11.6-0.8,17.3-1.1c1.3-0.2,2.9-0.6,4.2-0.8c1-0.2,2.1,0.2,3.2,0.2c0.4,0,1.1,0.2,1.3,0
			c0.4-0.6,0.6-1.1,0.4-1.7c0-0.4-0.6-1-1-1c-1.5,0-2.9,0.2-4.4,0.2l-21.1,1.7c-1.1,0-2.1,0.6-3.2,0.6c-0.6,0-1.1-0.6-1.7-0.8
			c0.4-0.6,0.8-1.5,1.1-1.5c3-0.4,6.1-0.6,8.9-0.8c2.9-0.4,5.7-0.8,8.7-1l5.1-0.6C99.5,48.8,99.5,48.6,99.5,48.4z M122.9,54.3v2.5
			c-1.7-0.6-3.4-1-4.9-1.3c-0.2,0-0.6-0.2-0.8-0.2l-3.4,1.7c0-0.2-0.2-0.2,0-0.4c1.3-1,1.3-2.3,1.3-3.8c0-0.2,1-0.8,1-0.6
			c1.1,1,3.2,0,4.2,1.9C120,54.5,121.7,54.3,122.9,54.3L122.9,54.3z M78.8,85.1c-0.8,1.9-4.2,3-6.5,1.7c1.1-0.8,2.3-1.3,3.4-1.9
			c-0.2-0.2-0.4-0.4-0.8-0.6c-0.4-0.2-0.8-0.4-1.1-0.4c0.8-1.7,1.9-1.9,3-0.6C77.4,83.9,78,84.5,78.8,85.1z M47.8,38.7
			c-0.2,0.4-0.4,1-0.6,1c-0.6,0-1.1,0-1.5-0.2c-1.1-0.8-2.3-1.7-3.2-2.7c-0.4-0.4-0.4-1.3-0.2-1.7c0.2-0.2,1.3-0.6,1.5-0.4
			c1.3,1,2.5,1.9,3.6,3C47.4,37.9,47.6,38.3,47.8,38.7z M46.4,44c0,1-1.1,1.7-1.9,1.1c-1.3-1.1-2.5-2.5-3.6-3.8
			c-0.6-0.8,0.2-1.5,0.8-1.1c1.7,1.1,3.2,2.3,4.8,3.6C46.4,43.8,46.4,44,46.4,44z M52.1,34.5c0.6,0.8,1.1,1.7,1.9,2.5
			s1.5,1.3,0.6,2.3c-0.8,1-1.5,0.2-2.1-0.4c-0.8-0.8-1.5-1.7-2.1-2.7c-0.2-0.4-0.2-1.1-0.4-1.7H52.1z M25.3,30.1
			c-0.4,0.4-0.6,1-1,1.1c-0.4,0.2-1.1,0-1.5-0.4c-0.8-0.6-1.5-1.3-2.1-2.1c-0.4-0.4-0.8-1.3-0.8-1.7c0.4-0.8,1-0.6,1.5,0
			c1,0.6,1.9,1,2.9,1.5C24.9,29,24.9,29.6,25.3,30.1z M27.8,31.6c0.2,0,0.6,0.2,0.8,0.4c0.8,1,1.7,1.9,2.3,2.9
			c0.2,0.4-0.2,1.1-0.4,1.9c-0.6-0.2-1.3-0.2-1.7-0.6c-0.6-0.6-1.1-1.3-1.5-2.3C26.5,33,26.8,31.6,27.8,31.6z M67.3,78.8
			c1,0,2.1-0.2,3.2-0.2c0,0.8,0,1.3,0.2,2.1h3.4c0,0.2,0,0.4,0.2,0.6c-0.6,0.2-1.3,0.6-2.1,1v1.9c-1-0.4-1.9-0.8-2.5-1
			c0-1,0.4-2.1,0-2.7c-0.4-0.6-1.5-0.8-2.5-1C67.2,79.2,67.3,79,67.3,78.8z M42.4,60c-0.4,0.2-1,0.4-1.3,0.4c-0.4,0-1.1,0-1.3-0.4
			c-0.8-1.3-1.3-2.7-1.7-4c-0.2-0.4,0.2-1,0.6-1.3c0.2-0.2,0.8-0.2,1,0C40.2,56.4,41.1,57.9,42.4,60z M32.5,49.5
			c0.2-0.6,0.2-1.1,0.4-1.5c0.2-0.2,0.4-0.6,0.6-0.8c0.2,0,0.8,0.2,0.8,0.6c0.6,1.3,1.1,2.7,1.5,4.2c0.2,0.4-0.4,1-0.8,1.5
			c-0.6-0.2-1.3-0.4-1.5-0.8C33.3,51.6,32.9,50.5,32.5,49.5z M32.9,58.7c0.2-0.2,0.6-1,0.8-1c0.4,0,1.1,0.4,1.3,0.8
			c0.6,1.1,1,2.5,1.3,3.6c0.2,0.6-0.4,1.1-0.6,1.7c-0.6-0.4-1.5-0.4-1.7-1C33.7,61.7,33.3,60.2,32.9,58.7z M41.7,32
			c-1.1-0.8-2.3-1.5-3.2-2.5c-0.4-0.4-0.6-1.1-0.8-1.9c0.6,0,1.3-0.2,1.9,0.2c0.8,0.4,1.5,0.8,2.3,1.3C43.4,30.3,43.4,30.9,41.7,32z
			 M26.8,23.9C27,24,27.2,24,27.4,24c1.1,0.8,2.1,1.5,3.2,2.5c0.4,0.4,0.4,1,0.4,1.5c-0.6,0.2-1.3,0.6-1.7,0.4
			c-1.1-0.6-2.1-1.5-2.9-2.3c-0.2-0.2-0.2-1.1,0-1.5C26.3,24.2,26.6,24,26.8,23.9z M79.5,81.1c-0.2,0.4-0.2,1-0.6,1.1
			c-1.9,1.1-1.5-1.1-2.3-1.3c0.8-0.8,1.3-1.3,2.1-1.9c1.1-1.1,3.2-0.4,3.6,1.1c0,0.4-0.2,0.8-0.2,1c-0.4,0-1,0-1-0.2
			c-0.8-1.1-1.3-0.8-2.1,0C79.1,80.7,79.3,80.9,79.5,81.1z M50.8,41.7c0.6,0.4,1,0.4,1.1,0.6c0.8,0.8,1.7,1.7,2.3,2.7
			c0.2,0.4,0.2,1.3,0,1.7c-0.2,0.4-1.3,0.4-1.5,0.2c-1-1-1.7-2.1-2.3-3.2C50,43.2,50.6,42.5,50.8,41.7z M35.8,24.8
			c-0.6,0.4-1.3,1-1.7,1c-1.3-0.6-2.7-1.5-3.8-2.5c-0.2-0.2-0.4-0.6-0.2-1c0-0.2,0.6-0.6,0.8-0.4c1.5,0.4,2.9,1,4.2,1.5
			C35.2,23.5,35.4,24,35.8,24.8z M42.4,52.4c-0.4-0.2-0.8-0.2-0.8-0.4c-0.8-1.1-1.3-2.3-1.9-3.6c-0.2-0.4,0.2-1,0.4-1.3
			c0.4,0.2,1,0.2,1.1,0.4c0.8,1,1.5,1.7,2.3,2.9c0.2,0.4,0.2,1,0,1.3C43.4,52,42.8,52.2,42.4,52.4z M107.5,78
			c-0.4,2.7-2.9,2.1-4.4,3.2c0.2-0.8,0.2-1.1,0.4-1.7c-0.6-0.4-1.1-0.6-1.7-1c0-0.2,0-0.4,0.2-0.6H107.5z M33.3,31.6
			c1.7-0.2,4.2,1,4.6,2.3c0.2,0.6,0,1.3-0.4,1.7c-0.2,0.2-1.1,0-1.5-0.4c-0.8-0.6-1.3-1.3-1.9-2.1C33.7,33,33.5,32.2,33.3,31.6z
			 M109.2,65.9c-1.1,0.4-2.1,1.1-2.1-0.6h-2.5c0.2,0.6,0.2,1.1,0.4,1.9c-2.1-0.4-2.1-0.8-1.9-3.8c0.6,0.4,1,0.8,1.3,0.8
			c0.6,0.2,1.1,0,1.7,0.2C107.5,64.4,108.6,64.4,109.2,65.9z M42.2,63.4c1,1.5,1.9,2.5,2.3,3.6c0.2,0.4-0.4,1.5-1,1.7
			c-0.8,0.4-1.3,0-1.5-1c-0.2-0.8-0.8-1.5-0.8-2.3C41.3,64.9,41.9,64.4,42.2,63.4z M39.2,42.9c-0.6,0.4-0.8,0.8-1.1,1
			c-0.6,0-1.3-0.2-1.5-0.6c-0.6-1.1-1-2.3-1.3-3.4c0-0.2,0.6-0.6,1-0.8C37.1,40.2,38.1,41.3,39.2,42.9z M29.5,41.2
			c-0.4,0.6-0.8,1.1-1.1,1.3c-0.4,0-1.1-0.2-1.3-0.6c-0.4-1-0.8-1.9-1-2.9c0-0.4,0.2-1,0.4-1.1c0.2-0.2,1,0.2,1.1,0.4
			C28.4,39.1,28.9,40.2,29.5,41.2z M101.2,85.7c-0.4-0.8-0.8-1.3-1.1-2.1c2.5-1.5,4.6-1.5,6.3,0c-1.7,0.6-3.2,1-4.9,1.5
			C101.4,85.3,101.2,85.5,101.2,85.7z M45.3,56c0.6,0.4,0.8,0.6,1,0.8c0.6,1,1.1,1.7,1.5,2.7c0.2,0.6-0.2,1.1-0.4,1.7
			c-0.6-0.2-1.3-0.4-1.5-1c-0.6-1-0.8-1.9-1.1-2.9C44.7,56.9,45.1,56.6,45.3,56z M39.2,68.5c0.6,1.3,1.5,2.7,1.7,4
			c0.2,0.8-1.1,1.3-1.7,0.4s-1-2.1-1.3-3.2c0-0.4,0.4-0.8,0.8-1.1C38.6,68.5,39.2,68.5,39.2,68.5z M46,49.3c0.6-0.2,1.3-0.6,1.5-0.4
			c0.8,0.8,1.3,1.7,1.9,2.7c0.2,0.2-0.4,1-0.8,1.1c-0.2,0.2-1.1,0-1.1-0.2C47,51.6,46.6,50.7,46,49.3z M72.1,86.4
			c-1.3,0.4-2.9,0.8-4.2,0.2c-0.6-0.2-0.8-1.3-1.1-2.3c1.3,0.6,2.1,0.8,3,1.1c0.8,0.2,1.5,0.2,2.5,0.4
			C72.1,85.8,72.1,86.2,72.1,86.4z M85.8,80.3h4.6C88.6,81.7,86.4,81.9,85.8,80.3z M83.3,85.5c-1-1.5-0.8-2.5,0.2-2.9
			c0.2-0.2,1.1,0.4,1,0.6C84.1,83.8,83.7,84.5,83.3,85.5z M103.3,69.3v2.3c-0.8-0.6-1.3-1.1-2.3-1.9C102,69.5,102.5,69.3,103.3,69.3
			z M12,18.1c0.8-1.3,1.5-2.1,2.9-1.3c0.2,0.2,0.4,1.3,0,1.7C13.9,19.5,13,19.1,12,18.1z"/>
	</g>
</g>
<path class="st0" d="M28.1,106.9L28.1,106.9c-0.3,1-0.8,1.6-1.4,1.8c-0.6,0.2-1.2,0.2-1.9,0l0,0c-0.6-0.2-1.4-0.6-2.2-1.2
	c-0.8-0.6-1.6-1.2-2.3-1.7l0,0c-1-0.8-2.1-1.7-3.4-2.7c-1.3-1.1-2.6-2.2-4-3.3c-1.4-1.2-2.8-2.3-4.1-3.5c-1.3-1.2-2.5-2.3-3.6-3.3
	l0,0c-0.5,1.5-0.9,2.8-1.2,3.9c-0.3,1-0.6,2-0.8,2.9c-0.2,0.8-0.4,1.8-0.6,2.8l0,0c-0.7-0.3-1.2-0.9-1.4-1.8s-0.1-1.9,0.1-3.2
	c0.2-1.3,0.6-2.7,1.2-4.2l0,0c0.5-1.5,1.1-2.9,1.6-4.1C4.7,88.1,5.2,87,5.7,86c0.5-1,0.9-2.1,1.3-3.1l0,0c0.4,1,0.6,2,0.4,3.1
	c-0.2,1-0.4,2.1-0.8,3.2l0,0c-0.1,0.2-0.2,0.5-0.3,0.8c-0.1,0.3-0.2,0.5-0.3,0.8c-0.1,0.3-0.2,0.5-0.3,0.8l0,0
	c1.5,1.3,3.5,2.9,5.9,4.8c2.4,1.9,5.1,3.9,8.2,6l0,0c1.1,0.7,2,1.4,2.9,2c0.8,0.6,1.6,1.1,2.4,1.5c0.7,0.4,1.5,0.8,2.2,1l0,0
	c0.1,0,0.2,0.1,0.4,0.1C27.8,106.9,27.9,106.9,28.1,106.9L28.1,106.9z M33.1,89.2L33.1,89.2c-0.2,0.4-0.7,0.5-1.5,0.4
	c-0.8-0.2-1.6-0.5-2.4-0.9l0,0c-1-0.6-2.1-1.4-3.2-2.5c-1.2-1.1-2.3-2.3-3.5-3.7c-1.2-1.4-2.3-2.8-3.4-4.3s-2-2.9-2.7-4.3
	c-0.8-1.4-1.3-2.5-1.7-3.6c-0.3-1-0.4-1.7-0.1-2.2l0,0c0.2-0.4,0.6-0.5,1.1-0.4c0.5,0.1,1,0.3,1.4,0.5l0,0c0.6,0.3,1.2,0.9,1.9,1.6
	c0.7,0.7,1.3,1.6,2,2.6c0.7,1,1.3,2,1.8,3.1c0.6,1.1,1,2.2,1.4,3.4c0.3,1.1,0.5,2.2,0.5,3.1l0,0c0.5,0.6,1,1.2,1.6,1.8
	c0.6,0.6,1.3,1.1,1.9,1.6c0.7,0.5,1.3,0.9,1.8,1.2l0,0c0.2,0.1,0.4,0.2,0.6,0.3c0.2,0.1,0.3,0.2,0.5,0.2l0,0
	c-0.7-0.8-1.3-1.6-1.9-2.3c-0.6-0.8-1.1-1.6-1.6-2.3c-0.4-0.8-0.8-1.5-1-2.2c-0.3-0.7-0.4-1.4-0.4-2.1c0-0.6,0.2-1.2,0.5-1.8l0,0
	c0.3-0.6,0.7-0.9,1.2-1.1c0.5-0.2,1-0.2,1.5-0.1c0.5,0.1,1,0.3,1.4,0.5l0,0c0.6,0.4,1.2,0.8,1.7,1.4c0.5,0.6,0.9,1.1,1.3,1.7
	c0.4,0.5,0.9,1,1.4,1.2l0,0c0.4,0.2,0.8,0.3,1,0.2c0.3-0.1,0.5-0.2,0.6-0.5l0,0c0.3-0.5,0.3-1.1,0.2-2c-0.1-0.8-0.4-1.8-0.8-2.8
	c-0.4-1-1-2-1.6-2.9l0,0l0.6-0.2c0.8,1,1.4,2,1.8,3.1C37.7,76,37.9,77,38,78c0,1-0.2,1.9-0.6,2.7l0,0c-0.4,0.7-0.9,1.1-1.4,1.3
	c-0.6,0.1-1.1,0.1-1.7-0.3l0,0c-0.4-0.2-0.9-0.6-1.3-1.1c-0.4-0.5-0.9-0.9-1.4-1.4c-0.5-0.5-0.9-0.8-1.4-1.1l0,0
	c-0.5-0.3-1-0.4-1.3-0.3c-0.4,0.1-0.6,0.3-0.8,0.6l0,0c-0.3,0.5-0.4,1.1-0.2,1.7c0.2,0.6,0.5,1.3,0.9,2c0.5,0.7,1,1.4,1.5,2.1
	c0.5,0.7,1.1,1.4,1.6,2c0.5,0.6,0.9,1.2,1.1,1.7C33.2,88.5,33.2,88.9,33.1,89.2L33.1,89.2z M23.7,80.9L23.7,80.9
	c-0.1-0.8-0.4-1.7-0.8-2.7c-0.4-0.9-0.8-1.9-1.4-2.8c-0.5-0.9-1.1-1.8-1.6-2.6c-0.5-0.8-1.1-1.5-1.6-2c-0.5-0.6-0.9-0.9-1.2-1.1l0,0
	c-0.1-0.1-0.2-0.1-0.2-0.1c0,0-0.1,0-0.1,0.1l0,0c-0.1,0.1,0,0.6,0.3,1.4c0.3,0.8,0.8,1.7,1.4,2.8c0.6,1.1,1.4,2.3,2.2,3.5
	C21.7,78.6,22.7,79.8,23.7,80.9L23.7,80.9z M47.5,67.2L47.5,67.2c-0.9,1.1-1.9,1.7-3,1.7c-1.1,0-2-0.3-2.9-1.1l0,0
	c-0.8-0.7-1.5-1.6-2-2.8c-0.6-1.2-0.9-2.4-1.2-3.8c-0.2-1.3-0.2-2.6,0-3.9c0.2-1.2,0.6-2.2,1.3-3l0,0c0.4-0.4,0.8-0.7,1.3-0.9
	c0.5-0.2,1.1,0,1.8,0.6l0,0c0.7,0.6,1.1,1.3,1.4,2.2c0.3,0.9,0.3,1.9,0.2,3c-0.1,1.1-0.3,2.1-0.7,3.1c-0.4,1-0.8,2-1.4,2.8l0,0
	c0.1,0.2,0.3,0.4,0.4,0.5c0.1,0.2,0.3,0.3,0.4,0.4l0,0c0.3,0.2,0.6,0.4,0.9,0.6c0.3,0.2,0.7,0.3,1,0.3c0.4,0,0.7,0,1.1-0.2
	c0.4-0.2,0.7-0.5,1.1-0.9l0,0c0.7-0.8,1.1-1.7,1.3-2.9c0.2-1.1,0.2-2.3,0-3.6c-0.2-1.3-0.5-2.5-1-3.7l0,0l0.5-0.1
	c0.7,1.4,1.1,2.8,1.2,4.2c0.2,1.4,0.1,2.8-0.2,4C48.8,65.2,48.3,66.3,47.5,67.2z M41.9,64.6L41.9,64.6c0.2-0.6,0.5-1.4,0.7-2.2
	c0.2-0.9,0.3-1.8,0.4-2.7c0-0.9,0-1.8-0.2-2.6c-0.2-0.8-0.6-1.5-1.2-2l0,0c-0.2-0.2-0.4-0.3-0.6-0.3c-0.2,0-0.4,0.1-0.6,0.3l0,0
	c-0.4,0.4-0.6,1-0.7,1.8c-0.1,0.8,0,1.6,0.1,2.5s0.4,1.8,0.8,2.7C40.9,63.1,41.4,63.9,41.9,64.6z M73,45.4L73,45.4
	c-0.3-1.1-0.7-2.4-1-3.8c-0.3-1.4-0.7-3.1-1.2-5.1c-0.5-2-1-4.3-1.7-7c-0.6-2.7-1.4-5.9-2.3-9.5l0,0c0-0.1-0.1-0.3-0.2-0.6
	c-0.1-0.3-0.2-0.5-0.4-0.8l0,0c-0.1-0.2-0.3-0.4-0.4-0.4c-0.1-0.1-0.3-0.1-0.5,0l0,0c-0.5,0.3-0.8,0.7-1.1,1.4
	c-0.2,0.6-0.3,1.3-0.3,2.1c0,0.8,0.1,1.5,0.3,2.2c0.2,0.7,0.4,1.3,0.7,1.8l0,0c0.2,0.4,0.5,0.7,0.8,1l0,0c-0.7,0.4-1.2,0.5-1.7,0.3
	c-0.5-0.2-0.9-0.5-1.1-1l0,0c-0.4-0.7-0.6-1.5-0.6-2.4c0-0.9,0.2-1.9,0.4-2.8c0.3-1,0.7-1.8,1.2-2.6c0.5-0.8,1-1.3,1.6-1.7l0,0
	c0.6-0.4,1.3-0.4,2-0.1c0.7,0.3,1.4,0.8,2.2,1.6c0.8,0.8,1.6,1.7,2.4,2.7c0.8,1,1.7,2.1,2.5,3.3l0,0c0.7,1,1.4,1.9,2.1,2.8
	c0.7,0.9,1.4,1.8,2.1,2.6c0.7,0.8,1.2,1.6,1.8,2.3c0.5,0.7,1,1.3,1.4,1.7l0,0c-0.4-1-0.8-2.2-1.3-3.6c-0.4-1.4-0.9-2.8-1.3-4.3
	c-0.4-1.5-0.8-3-1.2-4.5c-0.4-1.5-0.7-2.8-1-4c-0.3-1.2-0.5-2.3-0.7-3.1s-0.3-1.4-0.3-1.6l0,0c-0.1-0.3,0-0.8,0.1-1.4
	c0.2-0.6,0.4-1,0.9-1.3l0,0c0.2,1.1,0.5,2.5,0.8,4.1c0.4,1.6,0.8,3.3,1.3,5.2c0.5,1.8,1,3.7,1.5,5.6c0.5,1.9,1.1,3.7,1.6,5.4
	c0.6,1.7,1.1,3.3,1.6,4.6c0.5,1.4,1,2.5,1.5,3.3l0,0c-0.6,0.4-1.3,0.5-1.9,0.3c-0.6-0.1-1.3-0.6-2-1.4l0,0c-0.4-0.5-1-1.1-1.7-2
	s-1.5-1.8-2.3-2.8c-0.8-1-1.7-2.1-2.6-3.2c-0.9-1.1-1.8-2.2-2.7-3.3c-0.9-1.1-1.7-2.1-2.4-3c-0.7-0.9-1.3-1.7-1.8-2.2l0,0
	c1.1,4.1,2,7.6,2.7,10.4c0.7,2.8,1.3,5.2,1.7,7c0.4,1.8,0.7,3.2,0.8,4.3c0.1,1,0.1,1.8,0,2.3C73.6,44.9,73.3,45.2,73,45.4L73,45.4z
	 M99.8,29.9L99.8,29.9c-1.4,0.5-2.5,0.4-3.5-0.1c-0.9-0.5-1.6-1.3-2-2.4l0,0c-0.3-1-0.4-2.1-0.3-3.4c0.1-1.3,0.5-2.6,1-3.8
	c0.5-1.3,1.2-2.4,2-3.3c0.8-0.9,1.7-1.6,2.7-1.9l0,0c0.5-0.2,1-0.2,1.6-0.1c0.5,0.1,0.9,0.6,1.2,1.4l0,0c0.3,0.8,0.3,1.7,0.1,2.6
	c-0.3,0.9-0.7,1.8-1.3,2.7c-0.6,0.9-1.4,1.6-2.2,2.3c-0.8,0.7-1.7,1.2-2.7,1.7l0,0c0,0.2,0.1,0.5,0.1,0.7c0,0.2,0.1,0.4,0.2,0.6l0,0
	c0.1,0.3,0.3,0.7,0.5,1c0.2,0.3,0.4,0.6,0.7,0.8s0.6,0.3,1,0.4c0.4,0,0.9,0,1.4-0.2l0,0c1-0.3,1.8-0.9,2.6-1.8
	c0.8-0.9,1.4-1.9,1.9-3c0.5-1.2,0.9-2.4,1.1-3.6l0,0l0.5,0.2c-0.1,1.5-0.5,3-1.1,4.3c-0.6,1.3-1.3,2.4-2.3,3.3
	C101.9,28.9,100.9,29.5,99.8,29.9z M96.3,24.8L96.3,24.8c0.5-0.4,1.1-0.9,1.7-1.6s1.2-1.4,1.7-2.1c0.5-0.8,0.9-1.6,1.1-2.4
	c0.2-0.8,0.2-1.6,0-2.3l0,0c-0.1-0.2-0.2-0.4-0.3-0.5c-0.1-0.1-0.3-0.1-0.6,0l0,0c-0.5,0.2-1,0.6-1.5,1.2c-0.5,0.6-0.9,1.3-1.2,2.2
	c-0.3,0.9-0.6,1.8-0.8,2.7C96.3,23,96.2,23.9,96.3,24.8z M118.4,25L118.4,25c-1.1,0.2-2,0.1-2.7-0.3c-0.7-0.4-1.3-0.9-1.6-1.5
	c-0.4-0.7-0.6-1.3-0.7-2l0,0c-0.1-0.7-0.1-1.2,0-1.6c0.1-0.4,0.3-0.7,0.5-0.9c0.2-0.2,0.5-0.4,0.7-0.5c0.2-0.1,0.4-0.3,0.5-0.4l0,0
	c0.6-0.9,1.1-1.8,1.5-2.7c0.4-0.9,0.8-1.9,1.1-2.9l0,0l-0.1-0.4c-0.1-0.9-0.1-1.5,0.1-1.9c0.2-0.4,0.5-0.6,0.8-0.7l0,0
	c0.2,0,0.3,0,0.4,0.1c0.1,0.1,0.2,0.2,0.2,0.3l0,0c0,0.1,0,0.3,0,0.6c0,0.3,0,0.6,0,1l0,0c0.1,0.8,0.4,1.6,0.9,2.4
	c0.4,0.9,0.9,1.7,1.4,2.7c0.5,0.9,0.8,1.9,1,3l0,0c0.1,0.3,0.1,0.6,0.1,0.9c0,0.3,0,0.6,0,0.8l0,0c0.8-0.3,1.5-0.8,2.1-1.5
	c0.6-0.7,1.2-1.8,1.6-3.2l0,0l0.4,0.3c-0.2,1.4-0.7,2.4-1.5,3.2c-0.8,0.8-1.7,1.4-2.7,1.7l0,0c-0.2,1.1-0.7,1.9-1.4,2.5
	C120.3,24.5,119.4,24.9,118.4,25L118.4,25z M118.3,23.8L118.3,23.8c0.3,0,0.6-0.2,1.1-0.5c0.4-0.3,0.7-0.8,0.9-1.6l0,0
	c-1,0-1.9-0.3-2.8-0.7c-0.8-0.5-1.5-1-2-1.5l0,0c-0.5,0.1-0.7,0.5-0.6,1.3l0,0c0.1,0.8,0.5,1.6,1.1,2.2
	C116.6,23.7,117.4,23.9,118.3,23.8z M120.3,21.1L120.3,21.1c0-0.2,0-0.5,0-0.8c0-0.3-0.1-0.6-0.1-0.9l0,0c-0.2-1.1-0.5-2.2-0.9-3.2
	c-0.4-1-0.8-2-1.2-2.9l0,0c-0.4,1-0.8,1.9-1.3,2.8c-0.5,0.9-0.9,1.7-1.4,2.3l0,0c0.5,0.7,1.1,1.3,2,1.8
	C118.2,20.8,119.2,21.1,120.3,21.1z M137.4,22.8L137.4,22.8c-1,0-1.8-0.3-2.3-0.9c-0.5-0.6-0.8-1.5-0.8-2.6l0,0c0-1,0.2-2.3,0.6-3.8
	c0.4-1.5,0.9-3.1,1.4-4.7l0,0c-0.2,0-0.5-0.1-0.7-0.1c-0.2,0-0.4-0.1-0.6-0.2l0,0l0-0.6c0.2,0,0.4,0,0.7,0.1c0.3,0,0.6,0,0.9,0.1
	l0,0c0.5-1.3,1-2.5,1.6-3.7c0.6-1.2,1.1-2.3,1.7-3.2c0.6-0.9,1.1-1.7,1.6-2.2c0.5-0.6,0.9-0.8,1.3-0.8l0,0c0.2,0,0.4,0.1,0.5,0.2
	c0.2,0.1,0.2,0.3,0.2,0.6l0,0c0,0.4-0.2,1.1-0.7,2c-0.5,0.9-1.1,2-1.8,3.2c-0.7,1.3-1.4,2.6-2.1,4.1l0,0c0.2,0,0.4,0,0.7,0
	c0.2,0,0.4,0,0.7,0l0,0c0.8,0,1.6,0,2.5,0c0.9,0,1.7-0.1,2.6-0.2l0,0l0,0.6c-1.3,0.1-2.5,0.3-3.5,0.3c-1,0.1-1.9,0.1-2.7,0.1l0,0
	c-0.1,0-0.2,0-0.3,0s-0.2,0-0.3,0l0,0c-0.5,1.3-1,2.5-1.4,3.9c-0.4,1.3-0.6,2.6-0.6,3.9l0,0c0,1,0.2,1.7,0.5,2.2
	c0.3,0.4,0.8,0.6,1.5,0.6l0,0c1.2,0,2.4-0.6,3.6-1.6c1.2-1.1,2.2-2.6,3.1-4.4l0,0l0.5,0.4c-0.6,1.3-1.3,2.5-2.1,3.6
	s-1.8,1.9-2.8,2.5C139.6,22.4,138.5,22.8,137.4,22.8L137.4,22.8z M172.6,28.7L172.6,28.7c-1.2-0.4-2.1-0.9-2.6-1.5
	c-0.5-0.6-0.6-1.4-0.3-2.4l0,0c0-0.1,0.1-0.1,0.2,0l0,0c0.2,0.1,0.4,0.2,0.8,0.4c0.4,0.2,1.1,0.6,2.3,0.9l0,0c1.9,0.6,3.8,1,5.6,1.1
	s3.4,0,4.8-0.4c1.4-0.4,2.7-0.9,3.6-1.7c1-0.7,1.6-1.6,2-2.6l0,0c0.3-0.9,0.3-1.7,0-2.5c-0.3-0.7-0.9-1.4-1.6-1.9
	c-0.7-0.6-1.6-1.1-2.6-1.5c-1-0.4-1.9-0.8-2.9-1.1l0,0c-0.4-0.1-0.9-0.3-1.3-0.4c-0.4-0.1-0.8-0.3-1.2-0.4l0,0
	c-1.1,1.6-2.2,3.3-3.3,5c-1.1,1.7-2.2,3.3-3.3,4.9l0,0c-0.6-0.2-1-0.5-1.2-0.9c-0.3-0.4-0.3-0.9-0.2-1.3l0,0
	c0.1-0.3,0.2-0.6,0.5-0.9c0.2-0.3,0.4-0.6,0.6-0.9l0,0c0.3-0.4,0.8-1.1,1.4-2c0.7-0.9,1.5-2,2.4-3.3c0.9-1.3,2-2.6,3-3.9
	c1.1-1.4,2.2-2.7,3.3-3.9c1.1-1.3,2.1-2.4,3.1-3.3l0,0c-1-0.2-1.9-0.2-2.6-0.1c-0.7,0.1-1.3,0.2-1.8,0.3c-0.4,0.1-0.7,0.1-0.9,0.1
	l0,0c-0.1,0-0.2-0.1-0.4-0.3c-0.1-0.2-0.2-0.3-0.3-0.5c-0.1-0.2-0.1-0.3-0.1-0.5l0,0c1.3-0.1,2.6-0.1,3.9-0.1c1.3,0,2.9,0.3,4.6,0.9
	l0,0c0.7,0.2,1.5,0.6,2.4,1c0.9,0.4,1.6,0.9,2.3,1.6c0.7,0.6,1.2,1.4,1.5,2.3c0.3,0.9,0.2,1.9-0.1,3.1l0,0c-0.4,1.1-0.9,2-1.6,2.6
	c-0.7,0.6-1.6,1.1-2.5,1.3c-0.9,0.3-1.9,0.4-2.9,0.4c-1,0-1.9-0.1-2.9-0.2l0,0c1.6,0.6,2.9,1.3,3.8,2s1.5,1.4,1.9,2.1
	c0.4,0.7,0.5,1.4,0.5,2c0,0.6-0.1,1.2-0.3,1.8l0,0c-0.4,1.3-1.1,2.4-2.2,3.2c-1,0.8-2.2,1.5-3.6,1.9c-1.4,0.4-2.8,0.7-4.2,0.8
	c-1.5,0.1-2.9,0.1-4.2-0.1C174.8,29.3,173.6,29,172.6,28.7L172.6,28.7z M179.8,14L179.8,14c1.2,0.4,2.5,0.6,3.8,0.8
	c1.3,0.2,2.5,0.2,3.7,0s2.2-0.6,3.1-1.2c0.9-0.6,1.5-1.6,1.9-2.8l0,0c0.4-1.2,0.4-2.2,0.1-3s-0.9-1.5-1.7-2
	c-0.8-0.5-1.7-0.9-2.6-1.3l0,0c-0.1,0-0.2-0.1-0.3-0.1c-0.1,0-0.2-0.1-0.3-0.1l0,0c-1.3,1.3-2.6,2.8-3.9,4.5
	C182.3,10.5,181,12.2,179.8,14L179.8,14z M196.8,36.7L196.8,36.7c-0.6-0.4-1-0.9-1.2-1.6c-0.2-0.7,0-1.4,0.5-2.3l0,0
	c0.4-0.7,1.1-1.4,1.9-2.1c0.8-0.6,1.8-1.2,2.8-1.7c1.1-0.5,2.2-0.8,3.3-1.1c1.1-0.2,2.2-0.3,3.3-0.2c1,0.1,1.9,0.4,2.7,0.8l0,0
	c0.8,0.5,1.3,1.1,1.6,1.8c0.3,0.7,0.2,1.4-0.2,2.1l0,0c-0.3,0.5-0.7,0.8-1,0.8s-0.8-0.1-1.2-0.4l0,0c0.1-0.1,0.3-0.3,0.4-0.5
	s0.3-0.3,0.4-0.5l0,0c0.3-0.5,0.4-0.9,0.4-1.4s-0.3-0.9-0.8-1.2l0,0c-0.6-0.3-1.3-0.5-2.1-0.5c-0.8,0-1.7,0.2-2.6,0.5
	c-0.9,0.3-1.9,0.7-2.7,1.2c-0.9,0.5-1.7,1.1-2.4,1.7c-0.7,0.6-1.2,1.2-1.6,1.8l0,0c-0.5,0.8-0.4,1.3,0.1,1.7l0,0
	c0.5,0.3,1.1,0.4,1.9,0.3c0.8-0.1,1.7-0.3,2.7-0.6c1-0.3,2-0.7,2.9-1.1c1-0.4,1.8-0.8,2.6-1.1l0,0c0.1-0.1,0.2-0.1,0.3-0.1l0,0
	c0.1,0.1,0.2,0.2,0.4,0.4c0.2,0.2,0.3,0.4,0.3,0.5c0.1,0.2,0.1,0.4,0,0.5l0,0c-0.1,0.2-0.3,0.4-0.7,0.6s-0.8,0.4-1.3,0.7
	c-0.5,0.3-0.9,0.6-1.4,0.9s-0.8,0.6-1,1l0,0c-0.2,0.3-0.3,0.7-0.3,1c0,0.4,0.2,0.7,0.5,0.9l0,0c0.5,0.3,1.5,0.4,2.9,0.1
	c1.4-0.3,3-0.9,4.9-1.9l0,0l0.1,0.5c-1.1,0.8-2.2,1.5-3.4,1.9c-1.2,0.4-2.3,0.6-3.3,0.6c-1,0-1.9-0.2-2.6-0.7l0,0
	c-0.7-0.5-1.2-1-1.2-1.7c-0.1-0.7,0-1.3,0.4-1.8l0,0c0.1-0.1,0.2-0.3,0.3-0.4c0.1-0.1,0.2-0.3,0.3-0.4l0,0c-1.6,0.6-2.9,1-4,1.2
	C198.4,37.3,197.5,37.2,196.8,36.7z M222.5,54.9L222.5,54.9c-0.5-0.4-0.8-1-0.8-1.6c0-0.6,0.1-1.3,0.3-2c0.3-0.7,0.6-1.3,1-2
	c0.4-0.6,0.8-1.1,1.1-1.5l0,0c0.2,0.2,0.5,0.4,1,0.6c0.4,0.2,1,0.4,1.5,0.6c0.6,0.1,1.1,0.2,1.7,0.1s1-0.3,1.4-0.8l0,0
	c0.3-0.4,0.5-0.8,0.4-1.2c-0.1-0.4-0.3-0.8-0.6-1.2l0,0c-0.5-0.5-1.2-0.8-2-0.8c-0.8-0.1-1.7,0.1-2.6,0.3c-0.9,0.3-1.8,0.6-2.8,1
	c-0.9,0.4-1.8,0.8-2.5,1.3c-0.8,0.4-1.4,0.8-1.9,1.1l0,0c-0.4,0.2-0.7,0.3-1,0.2c-0.3-0.1-0.6-0.2-0.8-0.4l0,0
	c-0.3-0.3-0.4-0.6-0.3-1c0.1-0.4,0.3-0.7,0.6-1.1c0.3-0.4,0.7-0.8,1-1.2l0,0c0.8-0.9,1.9-1.8,3.3-2.7s2.9-1.8,4.5-2.6
	c1.7-0.8,3.3-1.6,5-2.3c1.7-0.7,3.3-1.2,4.7-1.7c1.5-0.4,2.7-0.7,3.8-0.9c1-0.1,1.7,0,2,0.2l0,0c0.2,0.2,0.3,0.6,0.1,1
	c-0.1,0.5-0.4,0.9-0.9,1.4l0,0c-0.5,0.6-1.3,1.1-2.2,1.7c-0.9,0.5-2,0.9-3.1,1.2c-1.2,0.3-2.4,0.5-3.6,0.6c-1.3,0.1-2.5,0-3.7-0.2
	l0,0c-1.9,0.9-3.5,1.9-5,3c-1.5,1.1-2.7,2.1-3.5,3l0,0c0.9-0.5,1.9-0.9,3.1-1.4c1.2-0.5,2.3-0.9,3.5-1.2c1.2-0.3,2.3-0.4,3.4-0.4
	s1.9,0.4,2.5,0.9l0,0c0.7,0.6,1,1.3,1,2.2c0,0.9-0.2,1.6-0.8,2.3l0,0c-0.5,0.6-1.1,0.9-1.7,1c-0.6,0.1-1.3,0.1-1.9,0
	c-0.6-0.1-1.2-0.3-1.7-0.6c-0.5-0.3-0.9-0.5-1.2-0.7l0,0c-0.1,0.2-0.3,0.5-0.5,0.9s-0.5,0.9-0.7,1.5c-0.2,0.6-0.3,1.1-0.3,1.6
	c0,0.5,0.2,0.9,0.5,1.2l0,0c0.5,0.5,1.2,0.7,2,0.7c0.8,0,1.7-0.1,2.7-0.4c1-0.3,2-0.6,3.1-1.1l0,0l0,0.5c-1,0.6-2.1,1.1-3.3,1.4
	c-1.2,0.3-2.3,0.4-3.4,0.3C224,55.8,223.1,55.4,222.5,54.9L222.5,54.9z M228.6,40.4L228.6,40.4c1.4,0.1,2.8,0,4.1-0.3
	c1.3-0.3,2.5-0.6,3.6-1.1c1-0.5,1.7-0.9,2.1-1.4l0,0c0.1-0.1,0.1-0.2,0.1-0.2c0,0,0-0.1,0-0.1l0,0c-0.2-0.2-0.7-0.1-1.7,0.1
	c-1,0.2-2.2,0.6-3.7,1.1C231.7,39.1,230.2,39.7,228.6,40.4z M233.7,67.1L233.7,67.1c-0.9-1.1-1.2-2.2-1-3.3c0.2-1.1,0.7-1.9,1.6-2.6
	l0,0c0.8-0.6,1.9-1.1,3.1-1.4c1.3-0.3,2.6-0.4,3.9-0.3c1.4,0.1,2.6,0.3,3.8,0.8c1.2,0.4,2.1,1.1,2.7,1.9l0,0
	c0.3,0.4,0.5,0.9,0.6,1.4c0.1,0.5-0.3,1.1-0.9,1.6l0,0c-0.7,0.5-1.5,0.8-2.5,0.9c-0.9,0.1-1.9-0.1-2.9-0.4c-1-0.3-2-0.8-2.9-1.3
	c-0.9-0.6-1.7-1.2-2.4-2l0,0c-0.2,0.1-0.4,0.2-0.6,0.3c-0.2,0.1-0.4,0.2-0.5,0.3l0,0c-0.3,0.2-0.5,0.5-0.8,0.8
	c-0.2,0.3-0.4,0.6-0.5,0.9s-0.1,0.7,0,1.1c0.1,0.4,0.3,0.8,0.6,1.2l0,0c0.6,0.8,1.5,1.4,2.5,1.9c1.1,0.4,2.2,0.7,3.5,0.8
	c1.3,0.1,2.5,0,3.8-0.2l0,0l0,0.5c-1.5,0.4-3,0.5-4.4,0.3c-1.4-0.1-2.7-0.5-3.9-1C235.4,68.7,234.4,68,233.7,67.1L233.7,67.1z
	 M237.4,62.1L237.4,62.1c0.6,0.4,1.2,0.7,2.1,1.1c0.8,0.4,1.7,0.7,2.6,0.9c0.9,0.2,1.8,0.3,2.6,0.3s1.6-0.3,2.2-0.7l0,0
	c0.2-0.2,0.3-0.3,0.4-0.5c0.1-0.2,0-0.4-0.2-0.6l0,0c-0.3-0.4-0.9-0.8-1.6-1c-0.7-0.2-1.6-0.4-2.5-0.4c-0.9,0-1.9,0-2.8,0.2
	C239.1,61.5,238.2,61.7,237.4,62.1L237.4,62.1z M246.3,84.7L246.3,84.7c-0.4-0.7-0.5-1.4-0.3-2c0.2-0.6,0.5-1.1,1.1-1.4l0,0
	c0.6-0.3,1.4-0.5,2.2-0.6c0.8-0.1,1.7-0.2,2.5-0.2c0.8-0.1,1.5-0.3,2-0.6l0,0c0.7-0.4,1.1-0.8,1.2-1.4c0.1-0.6,0.2-1.1,0.3-1.7l0,0
	c-1.5,0.2-2.9,0.3-4.3,0.4c-1.4,0.1-2.4,0.1-3.2,0.1l0,0l0.4-0.6c0.7,0,1.7,0,3-0.1c1.3-0.1,2.7-0.3,4.3-0.5l0,0
	c0.1-0.3,0.3-0.6,0.6-0.7l0,0c0.6-0.3,1.2-0.4,1.8-0.3c0.6,0.1,0.9,0.3,1,0.5l0,0c0.1,0.2,0.1,0.4-0.1,0.5c-0.2,0.1-0.3,0.2-0.4,0.3
	l0,0c-0.1,0.1-0.3,0.1-0.7,0.2c-0.4,0-0.6,0.1-0.6,0.1l0,0c-0.3,0.2-0.5,0.5-0.5,0.9c-0.1,0.5-0.1,1-0.2,1.5
	c-0.1,0.6-0.2,1.1-0.5,1.7c-0.2,0.6-0.7,1-1.4,1.4l0,0c-0.6,0.3-1.3,0.5-2.1,0.6c-0.8,0.1-1.5,0.2-2.3,0.2c-0.7,0.1-1.3,0.2-1.7,0.4
	l0,0c-0.4,0.2-0.6,0.4-0.6,0.7c0,0.3,0,0.5,0.2,0.7l0,0c0.3,0.5,0.7,0.9,1.3,1.3c0.6,0.4,1.3,0.7,2,0.9c0.7,0.2,1.5,0.4,2.2,0.5
	c0.7,0.1,1.4,0.1,1.9,0.1l0,0l-0.1,0.6c-1.1,0.1-2.2,0-3.4-0.2c-1.2-0.2-2.3-0.6-3.3-1.2C247.5,86.4,246.8,85.6,246.3,84.7
	L246.3,84.7z M244.4,101.4L244.4,101.4c-0.2-0.6-0.2-1.1,0-1.6c0.2-0.5,0.5-0.9,1.1-1.1l0,0c0.7-0.2,1.4-0.3,2.1-0.1
	c0.7,0.2,1.4,0.5,2,0.9c0.7,0.4,1.4,1,2,1.6c0.7,0.6,1.4,1.3,2.1,2l0,0c0.9,0,2,0,3.1,0c1.1,0,2.4-0.1,3.7-0.2l0,0
	c-1.4-0.3-2.7-0.8-3.8-1.3c-1.1-0.5-1.8-1.3-2.1-2.2l0,0c-0.1-0.4-0.2-0.9-0.1-1.4c0.1-0.5,0.2-0.9,0.6-1.3c0.3-0.4,0.8-0.7,1.4-0.9
	l0,0c0.6-0.2,1.4-0.3,2.3-0.4c0.9-0.1,1.8-0.1,2.7,0c0.9,0.1,1.6,0.2,2.3,0.3c0.6,0.2,1,0.4,1.1,0.6l0,0c0,0.1,0.1,0.3,0.1,0.5
	c0,0.3,0,0.5-0.1,0.8c-0.1,0.3-0.1,0.4-0.3,0.4l0,0c-0.4-0.1-0.8-0.2-1.5-0.3c-0.6-0.1-1.3-0.1-2-0.1c-0.7,0-1.4,0-2.1,0.1
	s-1.2,0.2-1.7,0.3l0,0c-0.4,0.1-0.7,0.3-0.9,0.6c-0.2,0.3-0.2,0.6-0.1,1.1l0,0c0.1,0.4,0.5,0.8,1.1,1.2c0.6,0.4,1.3,0.7,2.1,1
	c0.8,0.3,1.7,0.6,2.6,0.8l0,0c0.3,0,0.5,0,0.8-0.1c0.3,0,0.6-0.1,0.8-0.1l0,0c0.3,0,0.8,0,1.3,0.1c0.5,0.1,0.8,0.5,1,1l0,0
	c0,0.1,0.1,0.2,0.1,0.3c0,0.1,0,0.2,0,0.4l0,0c-0.4,0.1-1.1,0.2-2.1,0.3s-2.3,0.2-3.7,0.2c-1.4,0-2.9,0-4.5-0.1l0,0
	c0.8,0.9,1.8,1.7,3,2.4s2.8,1.1,4.5,1.2l0,0l-0.2,0.5c-1.2,0-2.3-0.2-3.3-0.6c-1-0.4-2-1-2.8-1.6c-0.9-0.7-1.6-1.3-2.3-2l0,0
	c-1.6-0.1-3.2-0.3-4.7-0.6c-1.5-0.3-2.7-0.6-3.8-1.1C245.3,102.8,244.6,102.2,244.4,101.4L244.4,101.4z M245.4,100.9L245.4,100.9
	c0.1,0.3,0.7,0.8,1.9,1.3c1.1,0.5,3,0.8,5.5,1l0,0c-0.8-0.8-1.6-1.4-2.3-2.1c-0.7-0.6-1.5-1.1-2.2-1.4c-0.7-0.3-1.4-0.3-2.2-0.1l0,0
	c-0.2,0.1-0.4,0.2-0.6,0.4C245.3,100.3,245.3,100.6,245.4,100.9L245.4,100.9z M9.9,185.1L9.9,185.1c-0.3-0.9-0.3-1.6,0-2.1
	s0.7-0.8,1.3-1l0,0c0.6-0.2,1.3-0.3,2.2-0.3c0.9,0,1.7,0,2.6,0l0,0c1.1,0,2.4,0,3.9,0.1c1.5,0,3,0.1,4.7,0.1
	c1.6,0.1,3.2,0.1,4.8,0.2c1.6,0.1,3,0.2,4.4,0.4l0,0c-0.5-1.4-0.9-2.5-1.3-3.4c-0.4-0.9-0.7-1.7-1-2.4c-0.3-0.7-0.7-1.5-1.2-2.3l0,0
	c0.7-0.2,1.3,0,1.9,0.5c0.6,0.5,1.2,1.3,1.7,2.3c0.5,1,1,2.2,1.5,3.6l0,0c0.5,1.4,0.8,2.6,1.1,3.7c0.3,1.1,0.5,2.2,0.7,3.2
	c0.2,1,0.5,2,0.8,2.9l0,0c-0.8-0.5-1.5-1.1-2-1.9s-0.9-1.7-1.2-2.7l0,0c-0.1-0.2-0.1-0.4-0.2-0.7c-0.1-0.2-0.2-0.5-0.2-0.7
	c-0.1-0.2-0.2-0.5-0.2-0.7l0,0c-1.8-0.1-4.1-0.1-6.8-0.1c-2.7,0-5.7,0.1-9.1,0.3l0,0c-1.2,0.1-2.2,0.1-3.1,0.2
	c-0.9,0.1-1.7,0.1-2.5,0.2c-0.7,0.1-1.4,0.3-2.1,0.5l0,0c-0.1,0-0.2,0.1-0.3,0.1C10.1,185,10,185.1,9.9,185.1z M19.3,204.8
	L19.3,204.8c-0.2-0.3-0.1-0.8,0.4-1.3c0.5-0.5,1.1-1,1.8-1.4l0,0c0.9-0.5,2-0.9,3.4-1.3c1.4-0.4,2.9-0.7,4.5-1
	c1.6-0.3,3.2-0.5,4.8-0.6c1.6-0.1,3.1-0.2,4.5-0.1c1.4,0,2.6,0.2,3.5,0.4c0.9,0.2,1.5,0.5,1.7,0.9l0,0c0.2,0.3,0.1,0.7-0.2,1
	c-0.3,0.4-0.7,0.6-1,0.8l0,0c-0.5,0.3-1.2,0.5-2.1,0.7c-0.9,0.2-1.8,0.3-2.9,0.4c-1.1,0.1-2.1,0.1-3.2,0c-1.1-0.1-2.2-0.2-3.2-0.5
	c-1-0.2-1.9-0.6-2.6-1l0,0c-0.7,0.1-1.4,0.2-2.1,0.4c-0.8,0.2-1.5,0.5-2.1,0.7c-0.7,0.3-1.3,0.6-1.7,0.8l0,0
	c-0.2,0.1-0.4,0.2-0.5,0.3c-0.1,0.1-0.3,0.2-0.4,0.3l0,0c0.9-0.2,1.8-0.3,2.7-0.4s1.7-0.1,2.5-0.1c0.8,0,1.5,0.1,2.2,0.2
	c0.7,0.1,1.3,0.4,1.7,0.7c0.5,0.3,0.9,0.7,1.2,1.2l0,0c0.3,0.5,0.4,1,0.3,1.4c-0.1,0.4-0.3,0.8-0.6,1.2c-0.3,0.4-0.6,0.6-1,0.9l0,0
	c-0.6,0.3-1.2,0.5-1.8,0.6c-0.6,0.1-1.3,0.2-1.9,0.3c-0.6,0.1-1.1,0.2-1.6,0.5l0,0c-0.4,0.2-0.6,0.4-0.7,0.7
	c-0.1,0.2-0.1,0.5,0.1,0.7l0,0c0.2,0.4,0.7,0.8,1.4,1.1s1.5,0.5,2.5,0.7c1,0.1,1.9,0.2,2.9,0.1l0,0l-0.1,0.5c-1.1,0.1-2.2,0.1-3.2,0
	c-1-0.1-1.9-0.4-2.7-0.9c-0.8-0.4-1.4-1-1.8-1.7l0,0c-0.3-0.6-0.5-1.2-0.3-1.7c0.2-0.5,0.5-0.9,1-1.2l0,0c0.4-0.2,0.9-0.4,1.4-0.5
	c0.6-0.1,1.1-0.3,1.7-0.4c0.6-0.1,1.1-0.3,1.5-0.6l0,0c0.5-0.3,0.8-0.6,0.8-0.9c0.1-0.3,0.1-0.6-0.1-0.9l0,0
	c-0.3-0.5-0.7-0.8-1.2-0.9c-0.6-0.2-1.2-0.2-2-0.2c-0.7,0-1.5,0.1-2.3,0.2c-0.8,0.1-1.5,0.2-2.3,0.3c-0.7,0.1-1.3,0.1-1.8,0.1
	C19.8,205.2,19.5,205.1,19.3,204.8L19.3,204.8z M30,201.5L30,201.5c0.7,0.3,1.5,0.5,2.4,0.6s1.8,0.2,2.8,0.2c0.9,0,1.8,0,2.7,0
	c0.9,0,1.6-0.1,2.3-0.3c0.7-0.1,1.1-0.3,1.4-0.4l0,0c0.1-0.1,0.1-0.1,0.2-0.1c0,0,0-0.1,0-0.1l0,0c-0.1-0.1-0.5-0.3-1.2-0.4
	c-0.7-0.1-1.7-0.2-2.8-0.2c-1.1,0-2.4,0-3.7,0.1C32.7,201,31.3,201.2,30,201.5L30,201.5z M34.8,229.2L34.8,229.2
	c-0.8-1-1.2-1.9-1-2.9c0.1-0.9,0.6-1.7,1.4-2.4l0,0c0.7-0.6,1.6-1.1,2.8-1.4c1.1-0.3,2.3-0.5,3.5-0.4c1.2,0,2.3,0.2,3.4,0.6
	c1.1,0.4,1.9,0.9,2.5,1.6l0,0c0.3,0.4,0.5,0.8,0.6,1.3c0.1,0.5-0.2,1-0.8,1.5l0,0c-0.6,0.5-1.3,0.8-2.2,0.9c-0.8,0.1-1.7,0-2.6-0.2
	c-0.9-0.2-1.8-0.6-2.7-1.1c-0.9-0.5-1.6-1-2.2-1.7l0,0c-0.2,0.1-0.4,0.2-0.5,0.3s-0.3,0.2-0.4,0.3l0,0c-0.2,0.2-0.5,0.4-0.7,0.7
	c-0.2,0.3-0.3,0.5-0.4,0.9c-0.1,0.3-0.1,0.6,0,1c0.1,0.3,0.3,0.7,0.6,1.1l0,0c0.6,0.7,1.3,1.2,2.3,1.6c1,0.3,2,0.5,3.1,0.6
	c1.1,0,2.3-0.1,3.4-0.3l0,0l0,0.5c-1.3,0.4-2.6,0.5-3.9,0.4c-1.3-0.1-2.4-0.3-3.5-0.8C36.3,230.7,35.5,230,34.8,229.2L34.8,229.2z
	 M37.9,224.6L37.9,224.6c0.5,0.3,1.1,0.6,1.9,0.9c0.7,0.3,1.5,0.6,2.3,0.8c0.8,0.2,1.6,0.2,2.3,0.2c0.7-0.1,1.4-0.3,1.9-0.7l0,0
	c0.2-0.1,0.3-0.3,0.3-0.4c0-0.1,0-0.3-0.2-0.5l0,0c-0.3-0.4-0.8-0.7-1.5-0.9c-0.7-0.2-1.4-0.3-2.2-0.3c-0.8,0-1.7,0.1-2.5,0.2
	C39.4,224.1,38.6,224.3,37.9,224.6z M63.8,257.7L63.8,257.7c0.7-0.7,1.6-1.5,2.5-2.4c1-0.9,2.1-1.9,3.4-3.1c1.3-1.2,2.9-2.6,4.7-4.3
	c1.8-1.7,3.9-3.6,6.4-5.9l0,0c0.1-0.1,0.2-0.2,0.4-0.4c0.2-0.2,0.3-0.4,0.4-0.6l0,0c0.1-0.2,0.2-0.3,0.2-0.5c0-0.2-0.1-0.3-0.2-0.4
	l0,0c-0.4-0.3-0.9-0.3-1.5-0.2c-0.6,0.1-1.2,0.3-1.8,0.7c-0.6,0.3-1.1,0.7-1.6,1.2c-0.5,0.5-0.9,0.9-1.1,1.3l0,0
	c-0.2,0.4-0.4,0.7-0.4,1l0,0c-0.6-0.4-0.9-0.8-1-1.2c-0.1-0.4,0-0.9,0.3-1.3l0,0c0.4-0.6,0.9-1.1,1.6-1.5c0.7-0.4,1.5-0.7,2.4-0.9
	c0.9-0.2,1.7-0.2,2.5-0.2s1.5,0.2,2,0.6l0,0c0.5,0.3,0.8,0.8,0.9,1.5c0.1,0.7,0,1.5-0.3,2.4s-0.6,2-1.1,3.1s-0.9,2.2-1.5,3.4l0,0
	c-0.4,1-0.9,1.9-1.3,2.9c-0.4,1-0.8,1.9-1.2,2.7c-0.4,0.9-0.7,1.7-1,2.4c-0.3,0.7-0.5,1.3-0.7,1.8l0,0c0.6-0.8,1.4-1.6,2.3-2.6
	c0.9-0.9,1.8-1.9,2.8-2.9c1-1,2-1.9,3-2.9c1-0.9,1.9-1.8,2.7-2.5c0.8-0.8,1.5-1.4,2.1-1.9c0.6-0.5,1-0.8,1.1-0.9l0,0
	c0.2-0.2,0.6-0.3,1.1-0.5c0.5-0.1,1-0.1,1.4,0.2l0,0c-0.8,0.7-1.8,1.5-2.9,2.4c-1.1,1-2.3,2-3.5,3.2c-1.2,1.2-2.5,2.4-3.7,3.6
	c-1.2,1.2-2.4,2.4-3.5,3.6c-1.1,1.2-2.1,2.3-2.9,3.3c-0.8,1-1.5,1.9-1.9,2.6l0,0c-0.6-0.3-0.9-0.8-1.1-1.3c-0.2-0.5-0.1-1.3,0.3-2.2
	l0,0c0.2-0.5,0.5-1.2,0.8-2.1c0.4-0.9,0.8-1.9,1.2-3c0.4-1.1,0.9-2.3,1.4-3.5c0.5-1.2,1-2.4,1.4-3.5c0.5-1.1,0.9-2.2,1.3-3.1
	c0.4-0.9,0.7-1.7,1-2.4l0,0c-2.7,2.6-5,4.8-6.9,6.6c-1.9,1.8-3.5,3.3-4.7,4.4c-1.2,1.1-2.2,2-3,2.5c-0.8,0.5-1.4,0.9-1.8,1
	C64.5,258,64.1,257.9,63.8,257.7L63.8,257.7z M94.3,271.8L94.3,271.8c-1.2-0.4-2-1.1-2.4-1.9c-0.4-0.9-0.4-1.8-0.1-2.8l0,0
	c0.3-0.9,0.9-1.8,1.6-2.6c0.8-0.8,1.7-1.6,2.8-2.2c1-0.6,2.1-1,3.2-1.3c1.1-0.2,2.1-0.2,2.9,0.1l0,0c0.5,0.2,0.8,0.4,1.1,0.8
	c0.3,0.4,0.3,0.9,0.1,1.7l0,0c-0.3,0.8-0.7,1.4-1.4,1.9c-0.7,0.5-1.5,0.9-2.4,1.2c-0.9,0.3-1.8,0.4-2.8,0.5c-1,0-1.9-0.1-2.8-0.3
	l0,0c-0.1,0.2-0.2,0.4-0.3,0.5c-0.1,0.2-0.1,0.3-0.2,0.5l0,0c-0.1,0.3-0.2,0.6-0.2,0.9c0,0.3,0,0.6,0.1,0.9c0.1,0.3,0.3,0.6,0.5,0.8
	c0.3,0.2,0.6,0.4,1.1,0.6l0,0c0.9,0.3,1.8,0.3,2.8,0.1c1-0.2,2-0.6,3-1.1c1-0.6,1.9-1.2,2.7-2l0,0l0.3,0.4c-0.9,1-2,1.8-3.1,2.4
	c-1.1,0.6-2.3,1-3.4,1.1C96.3,272.2,95.3,272.1,94.3,271.8z M94.5,266.3L94.5,266.3c0.6,0,1.3-0.1,2.1-0.2c0.8-0.1,1.6-0.3,2.4-0.6
	c0.8-0.3,1.5-0.6,2.1-1c0.6-0.4,1-1,1.2-1.6l0,0c0.1-0.2,0.1-0.4,0.1-0.6c0-0.1-0.2-0.3-0.4-0.3l0,0c-0.5-0.2-1.1-0.2-1.7,0
	c-0.7,0.2-1.3,0.5-2,0.9c-0.7,0.4-1.4,0.9-2,1.5C95.5,265,95,265.6,94.5,266.3L94.5,266.3z M115.7,277.9L115.7,277.9
	c-1-0.2-1.7-0.5-2.2-1c-0.5-0.5-0.8-1.1-0.9-1.8c-0.1-0.7-0.2-1.3-0.1-1.9l0,0c0.1-0.6,0.3-1.1,0.5-1.4c0.2-0.3,0.5-0.5,0.7-0.6
	c0.3-0.1,0.5-0.2,0.7-0.3c0.2-0.1,0.4-0.1,0.5-0.2l0,0c0.7-0.6,1.4-1.2,2.1-1.9c0.6-0.7,1.2-1.4,1.8-2.1l0,0l0.1-0.4
	c0.1-0.8,0.3-1.3,0.7-1.6c0.3-0.3,0.6-0.4,0.9-0.3l0,0c0.2,0,0.3,0.1,0.4,0.2c0.1,0.1,0.1,0.2,0.1,0.3l0,0c0,0.1-0.1,0.3-0.2,0.5
	c-0.1,0.2-0.2,0.5-0.2,0.9l0,0c-0.1,0.7-0.1,1.4,0,2.3c0.1,0.8,0.3,1.7,0.4,2.7c0.1,0.9,0.1,1.9-0.1,2.8l0,0c0,0.3-0.1,0.5-0.2,0.8
	c-0.1,0.2-0.2,0.5-0.3,0.7l0,0c0.7,0,1.5-0.2,2.2-0.6c0.7-0.4,1.5-1.2,2.3-2.2l0,0l0.2,0.4c-0.6,1.1-1.3,1.8-2.2,2.3
	c-0.9,0.5-1.8,0.7-2.8,0.7l0,0c-0.5,0.8-1.1,1.4-1.9,1.7C117.4,277.9,116.6,278,115.7,277.9L115.7,277.9z M115.9,276.8L115.9,276.8
	c0.2,0,0.6,0,1-0.1s0.8-0.5,1.2-1.1l0,0c-0.8-0.3-1.6-0.8-2.1-1.4c-0.6-0.6-1-1.2-1.3-1.8l0,0c-0.5-0.1-0.7,0.3-0.9,1l0,0
	c-0.1,0.8,0,1.5,0.3,2.2C114.6,276.2,115.1,276.6,115.9,276.8z M118.4,275.1L118.4,275.1c0.1-0.2,0.1-0.4,0.2-0.6s0.1-0.5,0.2-0.8
	l0,0c0.2-1,0.2-2,0.1-3c-0.1-1-0.1-1.9-0.2-2.8l0,0c-0.6,0.7-1.2,1.4-1.9,2c-0.6,0.6-1.2,1.1-1.8,1.5l0,0c0.2,0.7,0.6,1.4,1.1,2.1
	C116.7,274.2,117.5,274.7,118.4,275.1L118.4,275.1z M137.7,280L137.7,280c-0.9,0-1.6-0.3-2.1-0.8c-0.5-0.5-0.7-1.3-0.7-2.3l0,0
	c0-0.9,0.2-2.1,0.5-3.4s0.8-2.7,1.3-4.2l0,0c-0.2,0-0.4-0.1-0.6-0.1s-0.4-0.1-0.5-0.1l0,0l0-0.6c0.2,0,0.4,0.1,0.6,0.1
	c0.2,0,0.5,0,0.8,0.1l0,0c0.4-1.1,0.9-2.2,1.4-3.3c0.5-1.1,1-2,1.5-2.8s1-1.5,1.4-2c0.5-0.5,0.8-0.7,1.2-0.7l0,0
	c0.2,0,0.3,0.1,0.4,0.2c0.1,0.1,0.2,0.3,0.2,0.5l0,0c0,0.4-0.2,0.9-0.7,1.8c-0.4,0.8-1,1.8-1.7,2.9c-0.7,1.1-1.3,2.3-1.9,3.6l0,0
	c0.2,0,0.4,0,0.6,0c0.2,0,0.4,0,0.6,0l0,0c0.7,0,1.4,0,2.2,0c0.8,0,1.5-0.1,2.3-0.1l0,0l0,0.6c-1.2,0.1-2.2,0.2-3.1,0.3
	c-0.9,0.1-1.7,0.1-2.4,0.1l0,0c-0.1,0-0.2,0-0.2,0c-0.1,0-0.2,0-0.2,0l0,0c-0.5,1.1-0.9,2.3-1.2,3.4c-0.3,1.2-0.5,2.3-0.5,3.4l0,0
	c0,0.9,0.1,1.6,0.4,1.9c0.3,0.4,0.7,0.6,1.4,0.6l0,0c1.1,0,2.2-0.5,3.2-1.4c1.1-1,2-2.3,2.8-3.9l0,0l0.4,0.3
	c-0.5,1.2-1.1,2.2-1.9,3.2c-0.8,0.9-1.6,1.7-2.5,2.2C139.6,279.7,138.7,280,137.7,280L137.7,280z M179.8,275.5L179.8,275.5
	c-1.1,0.4-2,0.5-2.7,0.3c-0.7-0.2-1.2-0.7-1.4-1.6l0,0c0-0.1,0-0.1,0.1-0.1l0,0c0.1,0,0.4-0.1,0.8-0.1c0.4,0,1.1-0.2,2.1-0.5l0,0
	c1.7-0.6,3.2-1.3,4.6-2.2c1.3-0.9,2.4-1.8,3.3-2.9c0.8-1,1.4-2.1,1.7-3.1c0.3-1,0.3-2,0-2.9l0,0c-0.3-0.8-0.7-1.4-1.3-1.8
	c-0.6-0.3-1.4-0.5-2.2-0.5s-1.7,0.1-2.6,0.3c-0.9,0.2-1.8,0.4-2.6,0.7l0,0c-0.4,0.1-0.8,0.3-1.1,0.4c-0.4,0.1-0.7,0.3-1.1,0.4l0,0
	c0.1,1.8,0.2,3.5,0.3,5.3c0.1,1.8,0.2,3.5,0.2,5.2l0,0c-0.5,0.2-1,0.2-1.4,0c-0.4-0.2-0.7-0.4-0.8-0.8l0,0c-0.1-0.2-0.1-0.5-0.1-0.9
	c0-0.4,0-0.7,0-1l0,0c0-0.4,0-1.2,0-2.2c0-1,0-2.3,0-3.7c0-1.4,0-2.9,0.1-4.4c0.1-1.6,0.1-3.1,0.3-4.6c0.1-1.5,0.3-2.8,0.4-4l0,0
	c-0.8,0.4-1.4,0.9-1.9,1.3c-0.5,0.4-0.8,0.8-1.1,1.2c-0.2,0.3-0.4,0.5-0.6,0.5l0,0c-0.1,0-0.2,0-0.4,0c-0.2,0-0.4-0.1-0.5-0.2
	c-0.2-0.1-0.3-0.2-0.3-0.3l0,0c0.9-0.8,1.8-1.5,2.8-2.2c1-0.7,2.2-1.3,3.8-1.8l0,0c0.7-0.2,1.4-0.4,2.2-0.6c0.8-0.2,1.7-0.2,2.5-0.1
	s1.6,0.4,2.3,0.8c0.7,0.5,1.2,1.2,1.5,2.3l0,0c0.3,1,0.4,1.9,0.2,2.7c-0.2,0.8-0.5,1.6-1.1,2.2c-0.5,0.7-1.2,1.3-1.9,1.8
	c-0.7,0.5-1.4,1-2.2,1.4l0,0c1.5-0.4,2.8-0.6,3.8-0.6c1,0,1.8,0.2,2.5,0.5c0.6,0.3,1.1,0.7,1.4,1.2c0.3,0.5,0.6,0.9,0.7,1.4l0,0
	c0.4,1.2,0.4,2.3,0.1,3.4c-0.3,1.1-0.8,2.2-1.5,3.2c-0.7,1-1.6,2-2.6,2.8c-1,0.9-2,1.6-3.1,2.2C181.7,274.7,180.7,275.2,179.8,275.5
	L179.8,275.5z M177.2,261.1L177.2,261.1c1.1-0.4,2.1-0.9,3.2-1.5c1-0.6,1.9-1.2,2.6-2c0.7-0.8,1.3-1.6,1.6-2.5
	c0.3-0.9,0.3-1.9-0.1-3l0,0c-0.3-1-0.9-1.8-1.5-2.2c-0.7-0.4-1.4-0.6-2.3-0.5c-0.8,0-1.7,0.2-2.5,0.5l0,0c-0.1,0-0.2,0.1-0.3,0.1
	c-0.1,0-0.2,0.1-0.3,0.1l0,0c-0.2,1.6-0.4,3.4-0.4,5.3C177.1,257.3,177.1,259.2,177.2,261.1L177.2,261.1z M206.1,263.3L206.1,263.3
	c-0.6,0.3-1.1,0.4-1.8,0.3c-0.6-0.1-1.1-0.6-1.6-1.3l0,0c-0.4-0.6-0.7-1.4-0.8-2.3c-0.2-0.9-0.2-1.9-0.2-2.9c0.1-1,0.2-2.1,0.5-3
	c0.3-1,0.6-1.9,1.1-2.7c0.5-0.8,1.1-1.4,1.8-1.8l0,0c0.7-0.4,1.4-0.6,2.1-0.5c0.7,0.1,1.2,0.4,1.6,1l0,0c0.3,0.5,0.3,0.8,0.2,1.1
	c-0.1,0.3-0.4,0.6-0.8,0.8l0,0c-0.1-0.2-0.1-0.3-0.2-0.5c-0.1-0.2-0.2-0.3-0.3-0.5l0,0c-0.3-0.4-0.6-0.7-0.9-0.9
	c-0.4-0.2-0.8-0.1-1.3,0.2l0,0c-0.5,0.3-0.9,0.8-1.2,1.5c-0.3,0.7-0.5,1.4-0.6,2.3c-0.1,0.9-0.2,1.8-0.1,2.7c0,0.9,0.2,1.8,0.3,2.6
	c0.2,0.8,0.4,1.4,0.8,2l0,0c0.4,0.7,0.9,0.9,1.4,0.6l0,0c0.4-0.3,0.7-0.7,1-1.4c0.2-0.7,0.4-1.5,0.6-2.4c0.1-0.9,0.3-1.8,0.3-2.8
	c0.1-0.9,0.1-1.8,0.1-2.5l0,0c0-0.1,0-0.2,0-0.2l0,0c0.1,0,0.3-0.1,0.5-0.2c0.2-0.1,0.4-0.1,0.6-0.1c0.2,0,0.3,0.1,0.4,0.2l0,0
	c0.1,0.2,0.2,0.4,0.2,0.8c0,0.4,0,0.8,0,1.3c0,0.5,0.1,1,0.1,1.4c0.1,0.5,0.2,0.9,0.4,1.2l0,0c0.2,0.3,0.4,0.5,0.7,0.7
	s0.6,0.2,0.9,0l0,0c0.5-0.3,0.9-1,1.3-2.2c0.4-1.2,0.5-2.7,0.5-4.6l0,0l0.4,0.1c0.2,1.2,0.3,2.4,0.1,3.5c-0.1,1.1-0.4,2.1-0.8,2.9
	c-0.4,0.8-1,1.4-1.6,1.8l0,0c-0.7,0.4-1.3,0.5-1.8,0.3s-1-0.5-1.3-1l0,0c-0.1-0.1-0.1-0.2-0.2-0.4c-0.1-0.1-0.1-0.3-0.2-0.5l0,0
	c-0.1,1.5-0.4,2.7-0.7,3.6C207.3,262.2,206.8,262.9,206.1,263.3L206.1,263.3z M233,243.3L233,243.3c-0.4,0.4-0.9,0.6-1.5,0.6
	c-0.6,0-1.2-0.2-1.8-0.5c-0.6-0.3-1.1-0.6-1.7-1s-0.9-0.8-1.3-1.1l0,0c0.2-0.2,0.4-0.4,0.6-0.8c0.2-0.4,0.5-0.8,0.6-1.3
	c0.2-0.5,0.3-1,0.2-1.5s-0.2-1-0.6-1.3l0,0c-0.3-0.3-0.6-0.5-1.1-0.4c-0.4,0-0.8,0.2-1.1,0.5l0,0c-0.5,0.4-0.8,1-0.9,1.7
	c-0.1,0.7-0.1,1.5,0,2.3c0.2,0.8,0.4,1.7,0.7,2.5c0.3,0.8,0.6,1.6,0.9,2.3c0.3,0.7,0.6,1.3,0.8,1.8l0,0c0.2,0.4,0.2,0.7,0.1,0.9
	c-0.1,0.3-0.2,0.5-0.4,0.6l0,0c-0.3,0.2-0.6,0.3-0.9,0.2c-0.3-0.1-0.6-0.3-1-0.6c-0.3-0.3-0.7-0.7-1-1l0,0c-0.7-0.8-1.4-1.9-2.1-3.2
	c-0.7-1.3-1.3-2.7-1.9-4.3c-0.6-1.6-1.1-3.1-1.6-4.7c-0.4-1.6-0.8-3-1-4.4c-0.3-1.4-0.4-2.5-0.4-3.4c0-0.9,0.1-1.5,0.4-1.8l0,0
	c0.2-0.2,0.5-0.2,0.9,0c0.4,0.2,0.8,0.5,1.2,0.9l0,0c0.5,0.5,0.9,1.2,1.3,2.1c0.4,0.9,0.6,1.8,0.8,2.9c0.2,1.1,0.2,2.1,0.2,3.3
	c0,1.1-0.2,2.2-0.5,3.2l0,0c0.6,1.7,1.4,3.3,2.2,4.7c0.8,1.4,1.6,2.6,2.3,3.4l0,0c-0.3-0.9-0.6-1.8-1-2.9c-0.3-1.1-0.6-2.1-0.7-3.2
	c-0.2-1.1-0.2-2.1-0.1-3c0.1-0.9,0.5-1.6,1.1-2.2l0,0c0.6-0.5,1.2-0.8,2-0.7c0.8,0,1.4,0.3,1.9,0.9l0,0c0.5,0.5,0.7,1,0.8,1.6
	c0.1,0.6,0,1.1-0.2,1.7c-0.2,0.5-0.4,1-0.7,1.5c-0.3,0.4-0.5,0.8-0.8,1l0,0c0.1,0.1,0.4,0.3,0.7,0.5c0.4,0.3,0.8,0.5,1.3,0.7
	c0.5,0.2,0.9,0.4,1.4,0.4s0.8-0.1,1.1-0.3l0,0c0.5-0.4,0.7-1,0.8-1.7c0.1-0.7,0.1-1.5-0.1-2.4c-0.2-0.9-0.4-1.8-0.7-2.9l0,0l0.4,0
	c0.5,1,0.8,2,1,3.1c0.2,1.1,0.2,2.1,0,3C234,242.1,233.6,242.8,233,243.3L233,243.3z M220.8,236.6L220.8,236.6
	c0.2-1.2,0.2-2.5,0.1-3.7c-0.1-1.2-0.4-2.3-0.7-3.3c-0.3-0.9-0.6-1.6-1-2l0,0c-0.1-0.1-0.1-0.1-0.2-0.1c0,0-0.1,0-0.1,0l0,0
	c-0.2,0.1-0.2,0.7-0.1,1.5c0.1,0.9,0.3,2,0.7,3.3C219.9,233.8,220.3,235.2,220.8,236.6L220.8,236.6z M246.9,228.8L246.9,228.8
	c-0.8,1-1.6,1.6-2.6,1.6c-0.9,0.1-1.8-0.2-2.7-0.8l0,0c-0.7-0.6-1.4-1.4-1.9-2.4c-0.5-1-0.9-2.1-1.2-3.3c-0.3-1.2-0.3-2.3-0.2-3.4
	c0.1-1.1,0.5-2,1-2.8l0,0c0.3-0.4,0.7-0.7,1.1-0.8c0.5-0.2,1,0,1.6,0.4l0,0c0.6,0.5,1.1,1.1,1.4,1.9c0.3,0.8,0.4,1.7,0.4,2.6
	c0,0.9-0.2,1.9-0.5,2.8c-0.3,0.9-0.7,1.8-1.2,2.6l0,0c0.1,0.2,0.3,0.3,0.4,0.4c0.1,0.1,0.3,0.2,0.4,0.3l0,0c0.3,0.2,0.5,0.4,0.8,0.5
	c0.3,0.1,0.6,0.2,0.9,0.2c0.3,0,0.6-0.1,1-0.2c0.3-0.2,0.6-0.4,0.9-0.8l0,0c0.6-0.7,0.9-1.6,1-2.6c0.1-1,0.1-2.1-0.1-3.2
	c-0.2-1.1-0.6-2.2-1-3.2l0,0l0.4-0.1c0.7,1.2,1.1,2.5,1.3,3.7c0.2,1.3,0.2,2.5,0,3.6C247.9,227,247.5,228,246.9,228.8L246.9,228.8z
	 M241.7,226.8L241.7,226.8c0.2-0.6,0.4-1.2,0.5-2c0.1-0.8,0.2-1.6,0.2-2.4c0-0.8-0.1-1.6-0.3-2.3c-0.2-0.7-0.6-1.3-1.1-1.7l0,0
	c-0.2-0.1-0.4-0.2-0.5-0.2c-0.1,0-0.3,0.1-0.5,0.3l0,0c-0.3,0.4-0.5,0.9-0.5,1.6c0,0.7,0,1.4,0.2,2.2c0.2,0.8,0.4,1.6,0.8,2.4
	C240.8,225.5,241.2,226.2,241.7,226.8L241.7,226.8z M259.8,208.2L259.8,208.2c-0.3,0.6-0.8,1-1.3,1.2c-0.5,0.2-1.1,0.1-1.6-0.2l0,0
	c-0.6-0.3-1.1-0.7-1.5-1.3c-0.5-0.6-0.9-1.2-1.4-1.7c-0.5-0.6-0.9-1-1.4-1.2l0,0c-0.6-0.3-1.1-0.4-1.6-0.2c-0.5,0.2-0.9,0.4-1.4,0.6
	l0,0c0.9,1,1.7,2,2.4,3c0.7,1,1.3,1.8,1.6,2.3l0,0l-0.6,0c-0.3-0.5-0.9-1.2-1.6-2.1c-0.7-0.9-1.5-1.9-2.5-2.9l0,0
	c-0.3,0.1-0.6,0.1-0.8-0.1l0,0c-0.6-0.3-0.9-0.7-1.1-1.2c-0.2-0.5-0.2-0.8-0.2-1l0,0c0.1-0.2,0.3-0.3,0.4-0.2
	c0.2,0.1,0.3,0.1,0.4,0.2l0,0c0.1,0.1,0.3,0.2,0.5,0.4c0.2,0.2,0.4,0.4,0.4,0.4l0,0c0.3,0.1,0.6,0.1,0.9-0.1
	c0.4-0.2,0.8-0.4,1.2-0.6c0.5-0.2,1-0.4,1.5-0.5c0.5-0.1,1.1,0,1.7,0.3l0,0c0.6,0.3,1.1,0.7,1.5,1.3c0.5,0.5,0.9,1.1,1.3,1.6
	c0.4,0.5,0.8,0.9,1.2,1.1l0,0c0.3,0.2,0.6,0.2,0.8,0.1c0.2-0.1,0.4-0.3,0.5-0.5l0,0c0.2-0.4,0.3-1,0.3-1.6c0-0.6-0.1-1.3-0.3-1.9
	c-0.2-0.7-0.4-1.3-0.7-1.9c-0.3-0.6-0.6-1.1-0.9-1.5l0,0l0.5-0.2c0.6,0.8,1.1,1.7,1.5,2.7c0.4,1,0.7,2,0.8,3
	C260.4,206.5,260.2,207.4,259.8,208.2L259.8,208.2z M275.2,193.6L275.2,193.6c-0.2,0.5-0.4,0.9-0.8,1.2s-0.9,0.4-1.4,0.2l0,0
	c-0.6-0.2-1.2-0.6-1.6-1c-0.4-0.5-0.7-1.1-1-1.7c-0.2-0.7-0.4-1.4-0.6-2.3c-0.2-0.8-0.3-1.7-0.4-2.6l0,0c-0.6-0.5-1.4-1.1-2.2-1.7
	c-0.8-0.6-1.7-1.2-2.7-1.8l0,0c0.8,1,1.5,2,2,2.9c0.5,1,0.6,1.9,0.4,2.7l0,0c-0.1,0.4-0.3,0.7-0.6,1c-0.3,0.3-0.7,0.5-1.1,0.7
	c-0.4,0.1-0.9,0.1-1.5-0.1l0,0c-0.6-0.2-1.2-0.5-1.9-0.9c-0.7-0.4-1.3-0.9-1.9-1.4c-0.6-0.5-1.1-1-1.5-1.4c-0.4-0.5-0.5-0.8-0.4-1
	l0,0c0-0.1,0.1-0.2,0.2-0.4c0.1-0.2,0.3-0.4,0.4-0.5c0.2-0.2,0.3-0.2,0.4-0.2l0,0c0.2,0.3,0.5,0.6,0.9,1c0.4,0.4,0.9,0.8,1.4,1.2
	c0.5,0.4,1,0.8,1.6,1.1c0.5,0.3,1,0.5,1.4,0.7l0,0c0.4,0.1,0.7,0.1,0.9,0.1c0.3-0.1,0.5-0.3,0.6-0.7l0,0c0.1-0.4,0.1-0.9-0.1-1.5
	c-0.2-0.6-0.5-1.2-1-1.9c-0.4-0.7-0.9-1.3-1.4-1.9l0,0c-0.2-0.1-0.4-0.3-0.6-0.4c-0.2-0.1-0.4-0.2-0.7-0.4l0,0
	c-0.3-0.2-0.5-0.4-0.8-0.8c-0.3-0.3-0.4-0.8-0.2-1.3l0,0c0-0.1,0.1-0.2,0.1-0.3c0-0.1,0.1-0.2,0.2-0.3l0,0c0.3,0.1,0.9,0.4,1.7,0.9
	c0.8,0.5,1.7,1.1,2.8,1.8c1,0.7,2.1,1.5,3.2,2.4l0,0c-0.1-1.1-0.4-2.2-0.9-3.3c-0.5-1.2-1.4-2.3-2.6-3.3l0,0l0.4-0.3
	c0.9,0.6,1.6,1.3,2.1,2.2c0.5,0.8,0.9,1.7,1.2,2.7c0.3,0.9,0.4,1.8,0.5,2.7l0,0c1.1,0.9,2.1,1.9,3.1,2.9c0.9,1,1.6,1.9,2.1,2.8
	C275.3,192.2,275.4,192.9,275.2,193.6L275.2,193.6z M274.2,193.5L274.2,193.5c0.1-0.3-0.1-0.9-0.7-1.9c-0.6-1-1.7-2.2-3.4-3.6l0,0
	c0.2,1,0.4,1.9,0.6,2.7c0.2,0.8,0.5,1.5,0.9,2.1c0.4,0.6,0.9,1,1.5,1.2l0,0c0.2,0.1,0.4,0.1,0.6,0
	C273.9,194,274.1,193.8,274.2,193.5L274.2,193.5z M2.5,143.3c0-5.4,4.4-9.7,9.7-9.7c5.4,0,9.7,4.4,9.7,9.7c0,5.4-4.4,9.7-9.7,9.7
	S2.5,148.7,2.5,143.3z M259.4,143.3c0-5.4,4.4-9.7,9.7-9.7c5.4,0,9.7,4.4,9.7,9.7c0,5.4-4.4,9.7-9.7,9.7
	C263.7,153,259.4,148.7,259.4,143.3z"/>
</svg>
